<svg width="155" height="155" viewBox="0 0 155 155" fill="none" xmlns="http://www.w3.org/2000/svg">
<circle opacity="0.1" cx="77.5" cy="77.5" r="77.5" fill="#06C167"/>
<rect x="43" y="46" width="69" height="62" fill="#FEFEFE"/>
<path fill-rule="evenodd" clip-rule="evenodd" d="M49.6896 28.7394C54.4805 28.3571 59.0286 26.4732 62.6866 23.3559C71.2229 16.0814 83.7779 16.0814 92.3142 23.3559C95.9721 26.4732 100.52 28.3571 105.311 28.7394C116.491 29.6316 125.369 38.5094 126.261 49.6893C126.643 54.4801 128.527 59.0283 131.644 62.6863C138.919 71.2225 138.919 83.7775 131.644 92.3138C128.527 95.9718 126.643 100.52 126.261 105.311C125.369 116.491 116.491 125.368 105.311 126.261C100.52 126.643 95.9721 128.527 92.3142 131.644C83.7779 138.919 71.2229 138.919 62.6866 131.644C59.0286 128.527 54.4805 126.643 49.6896 126.261C38.5097 125.368 29.632 116.491 28.7398 105.311C28.3575 100.52 26.4736 95.9718 23.3563 92.3138C16.0818 83.7775 16.0818 71.2225 23.3563 62.6863C26.4736 59.0283 28.3575 54.4801 28.7398 49.6893C29.632 38.5094 38.5097 29.6316 49.6896 28.7394ZM105.118 67.868C108.028 64.9586 108.028 60.2415 105.118 57.3321C102.209 54.4227 97.4919 54.4227 94.5824 57.3321L70.0504 81.8641L60.4183 72.2321C57.5089 69.3227 52.7919 69.3227 49.8824 72.2321C46.973 75.1415 46.973 79.8586 49.8824 82.768L64.7824 97.668C67.6919 100.577 72.4089 100.577 75.3183 97.668L105.118 67.868Z" fill="#06C167"/>
</svg>
