<svg width="972" height="357" viewBox="0 0 972 357" fill="none" xmlns="http://www.w3.org/2000/svg">
<path d="M809.374 152.531L809.38 152.52C816.46 139.573 825.982 129.538 837.946 122.44C837.946 122.44 837.947 122.44 837.947 122.44L838.457 123.3C850.457 116.1 863.657 112.5 878.057 112.5C891.057 112.5 902.357 115.1 911.957 120.3L809.374 152.531ZM809.374 152.531C802.487 165.495 799.057 180.36 799.057 197.1C799.057 213.84 802.487 228.9 809.368 242.258L809.372 242.266L809.377 242.274C816.454 255.417 825.97 265.75 837.926 273.247L837.936 273.254C849.897 280.552 863.078 284.2 877.457 284.2C890.396 284.2 901.958 281.571 912.118 276.287C921.237 271.545 928.658 265.719 934.357 258.799V280.5V281.5H935.357H969.857H970.857V280.5V115.2V114.2H969.857H935.357H934.357V115.2V136.356C928.678 129.62 921.358 123.975 912.422 119.415L809.374 152.531ZM321.2 280.5V196.9H358C375.304 196.9 389.578 193.984 400.766 188.085L400.766 188.085L400.779 188.078C411.92 182.001 420.076 174.171 425.183 164.57C430.259 155.026 432.8 144.865 432.8 134.1C432.8 122.334 429.958 111.658 424.263 102.095C418.75 92.5017 410.291 84.9766 398.944 79.5039C387.77 73.8177 374.108 71 358 71H286H285V72V280.5V281.5H286H320.2H321.2V280.5ZM608.718 211.6H609.571L609.705 210.758C610.515 205.696 610.918 200.042 610.918 193.8C610.918 177.656 607.486 163.384 600.593 151.015C593.704 138.454 584.07 128.719 571.705 121.827C559.339 114.934 545.268 111.5 529.518 111.5C513.169 111.5 498.599 115.034 485.832 122.126L485.826 122.129C473.256 129.226 463.424 139.366 456.337 152.526L456.335 152.531C449.446 165.498 446.018 180.565 446.018 197.7C446.018 214.84 449.548 230.008 456.637 243.174L456.642 243.182L456.646 243.19C463.932 256.142 473.858 266.273 486.416 273.565L486.424 273.57L486.432 273.574C499.195 280.664 513.565 284.2 529.518 284.2C549.088 284.2 565.508 279.355 578.712 269.604L578.714 269.603C586.657 263.706 593.144 256.833 598.164 248.984L598.718 248.119L597.838 247.589L569.4 230.444L569.162 230.3H568.884H568.518H567.896L567.621 230.857C563.895 238.408 558.87 244.026 552.558 247.765C546.243 251.505 538.578 253.4 529.518 253.4C516.946 253.4 506.392 249.479 497.791 241.66C489.44 234.069 484.668 224.074 483.506 211.6H608.718ZM560.064 153.457C568.393 160.65 572.777 170.134 573.192 182H483.861C485.582 169.939 490.435 160.449 498.379 153.45L498.389 153.442C506.597 146.015 516.455 142.3 528.018 142.3C540.808 142.3 551.468 146.032 560.064 153.457ZM635.494 152.526L635.491 152.531C628.602 165.498 625.174 180.565 625.174 197.7C625.174 214.836 628.602 229.999 635.488 243.164L635.492 243.172L635.497 243.18C642.581 256.133 652.306 266.267 664.666 273.561L664.677 273.567C677.046 280.665 691.222 284.2 707.174 284.2C726.946 284.2 743.567 279.254 756.97 269.303L756.978 269.297C766.227 262.29 773.446 253.631 778.626 243.327L779.105 242.375L778.124 241.958L746.451 228.473L745.504 228.07L745.128 229.027C741.921 237.2 737.167 243.271 730.89 247.307C724.608 251.347 716.722 253.4 707.174 253.4C693.447 253.4 682.537 248.514 674.343 238.76C666.339 228.996 662.274 215.352 662.274 197.7C662.274 180.044 666.341 166.504 674.34 156.943C682.535 147.187 693.445 142.3 707.174 142.3C717.02 142.3 725.107 144.563 731.502 149.02C737.561 153.243 742.069 159.027 745.024 166.409L745.464 167.508L746.474 166.891L776.127 148.776L776.954 148.27L776.475 147.428C771.604 138.859 765.198 131.744 757.261 126.091C744.053 116.339 727.333 111.5 707.174 111.5C691.222 111.5 677.046 115.035 664.677 122.133C652.307 129.23 642.578 139.37 635.494 152.526ZM927.28 168.48L927.284 168.488L927.289 168.496C931.988 176.72 934.357 186.443 934.357 197.7C934.357 208.957 931.988 218.784 927.284 227.213L927.28 227.22C922.76 235.474 916.784 241.734 909.356 246.035C901.909 250.346 893.881 252.5 885.257 252.5C876.841 252.5 868.814 250.351 861.162 246.037C853.735 241.538 847.656 235.078 842.935 226.621C838.427 218.191 836.157 208.36 836.157 197.1C836.157 185.837 838.429 176.214 842.927 168.192C847.647 159.935 853.72 153.776 861.141 149.675L861.149 149.67L861.158 149.665C868.605 145.354 876.633 143.2 885.257 143.2C893.881 143.2 901.909 145.354 909.356 149.665C916.784 153.966 922.76 160.226 927.28 168.48ZM395.7 134.1C395.7 144.689 392.571 152.796 386.422 158.565C380.28 164.127 370.869 167 358 167H321.2V100.9H358C370.774 100.9 380.168 103.725 386.363 109.199C392.534 114.653 395.7 122.888 395.7 134.1Z" fill="white" stroke="white" stroke-width="2"/>
<path d="M110.819 0L0 68.3775V292.137L0.0608825 292L35 307.57V87.9081L112.181 40.2857L204 88.6992V106.725L121.627 161.091L69.3148 125.654L68.5 126.857V167.377L121.373 203.194L239 125.561V67.5865L110.819 0Z" fill="#007FFF"/>
<path d="M68.5 247.605V207.132L121.33 237.808L238.461 167.158L240.5 170.538V206.802L121.67 278.477L68.5 247.605Z" fill="#007FFF"/>
<path d="M240.5 249.81L121.921 315.875L68.6448 283.222L68.5 283.459V324.184L121.079 356.41L240.5 289.876V249.81Z" fill="#007FFF"/>
<path d="M68.5002 207.133V247.605L121.67 278.478L240.5 206.802V170.538L238.462 167.158L121.331 237.808L68.5002 207.133Z" fill="white"/>
</svg>
