<svg width="24" height="18" viewBox="0 0 24 18" fill="none" xmlns="http://www.w3.org/2000/svg">
<g clip-path="url(#clip0_566_9192)">
<rect width="24" height="18" rx="2" fill="white"/>
<path fill-rule="evenodd" clip-rule="evenodd" d="M0 0V18H24V0H0Z" fill="#2E42A5"/>
<mask id="mask0_566_9192" style="mask-type:luminance" maskUnits="userSpaceOnUse" x="0" y="0" width="24" height="18">
<path fill-rule="evenodd" clip-rule="evenodd" d="M0 0V18H24V0H0Z" fill="white"/>
</mask>
<g mask="url(#mask0_566_9192)">
<path d="M-2.67188 16.714L2.60939 18.9476L24.1203 2.42836L26.9061 -0.890757L21.2585 -1.63727L12.4847 5.48133L5.42272 10.2776L-2.67188 16.714Z" fill="white"/>
<path d="M-1.94922 18.2789L0.741343 19.5751L25.9054 -1.19913H22.1275L-1.94922 18.2789Z" fill="#F50100"/>
<path d="M26.6719 16.714L21.3906 18.9476L-0.120319 2.42836L-2.90607 -0.890757L2.74149 -1.63727L11.5153 5.48133L18.5773 10.2776L26.6719 16.714Z" fill="white"/>
<path d="M26.4922 17.8371L23.8016 19.1333L13.0865 10.2388L9.90973 9.24502L-3.1736 -0.879375H0.604261L13.6802 9.00471L17.1535 10.1963L26.4922 17.8371Z" fill="#F50100"/>
<mask id="path-8-inside-1_566_9192" fill="white">
<path fill-rule="evenodd" clip-rule="evenodd" d="M14.8322 -1.5H9.16555V6H-1.48047V12H9.16555V19.5H14.8322V12H25.5195V6H14.8322V-1.5Z"/>
</mask>
<path fill-rule="evenodd" clip-rule="evenodd" d="M14.8322 -1.5H9.16555V6H-1.48047V12H9.16555V19.5H14.8322V12H25.5195V6H14.8322V-1.5Z" fill="#F50100"/>
<path d="M9.16555 -1.5V-2.75H7.91555V-1.5H9.16555ZM14.8322 -1.5H16.0822V-2.75H14.8322V-1.5ZM9.16555 6V7.25H10.4155V6H9.16555ZM-1.48047 6V4.75H-2.73047V6H-1.48047ZM-1.48047 12H-2.73047V13.25H-1.48047V12ZM9.16555 12H10.4155V10.75H9.16555V12ZM9.16555 19.5H7.91555V20.75H9.16555V19.5ZM14.8322 19.5V20.75H16.0822V19.5H14.8322ZM14.8322 12V10.75H13.5822V12H14.8322ZM25.5195 12V13.25H26.7695V12H25.5195ZM25.5195 6H26.7695V4.75H25.5195V6ZM14.8322 6H13.5822V7.25H14.8322V6ZM9.16555 -0.25H14.8322V-2.75H9.16555V-0.25ZM10.4155 6V-1.5H7.91555V6H10.4155ZM-1.48047 7.25H9.16555V4.75H-1.48047V7.25ZM-0.230469 12V6H-2.73047V12H-0.230469ZM9.16555 10.75H-1.48047V13.25H9.16555V10.75ZM10.4155 19.5V12H7.91555V19.5H10.4155ZM14.8322 18.25H9.16555V20.75H14.8322V18.25ZM13.5822 12V19.5H16.0822V12H13.5822ZM25.5195 10.75H14.8322V13.25H25.5195V10.75ZM24.2695 6V12H26.7695V6H24.2695ZM14.8322 7.25H25.5195V4.75H14.8322V7.25ZM13.5822 -1.5V6H16.0822V-1.5H13.5822Z" fill="white" mask="url(#path-8-inside-1_566_9192)"/>
</g>
</g>
<defs>
<clipPath id="clip0_566_9192">
<rect width="24" height="18" rx="2" fill="white"/>
</clipPath>
</defs>
</svg>
