<svg width="24" height="18" viewBox="0 0 24 18" fill="none" xmlns="http://www.w3.org/2000/svg">
<g clip-path="url(#clip0_566_15980)">
<rect width="24" height="18" rx="2" fill="white"/>
<path fill-rule="evenodd" clip-rule="evenodd" d="M0 0H24V18H0V0Z" fill="#E31D1C"/>
<path fill-rule="evenodd" clip-rule="evenodd" d="M0 1.5V3H24V1.5H0ZM0 4.5V6H24V4.5H0ZM0 9V7.5H24V9H0ZM0 10.5V12H24V10.5H0ZM0 15V13.5H24V15H0ZM0 18V16.5H24V18H0Z" fill="#F7FCFF"/>
<rect width="13.5" height="10.5" fill="#2E42A5"/>
<path fill-rule="evenodd" clip-rule="evenodd" d="M4.21613 3.07281L3.76066 3.39212L3.91443 2.82387L3.50988 2.46375H4.03828L4.2155 2L4.4233 2.46375H4.87374L4.51982 2.82387L4.65684 3.39212L4.21613 3.07281ZM1.70625 3.07292L1.25077 3.39223L1.40455 2.82398L1 2.46386H1.52839L1.70561 2.00011L1.91342 2.46386H2.36386L2.00994 2.82398L2.14695 3.39223L1.70625 3.07292ZM6.27054 3.39212L6.72602 3.07281L7.16672 3.39212L7.0297 2.82387L7.38363 2.46375H6.93319L6.72538 2L6.54816 2.46375H6.01977L6.42432 2.82387L6.27054 3.39212ZM9.23613 3.07281L8.78065 3.39212L8.93442 2.82387L8.52988 2.46375H9.05827L9.23549 2L9.44329 2.46375H9.89374L9.53981 2.82387L9.67683 3.39212L9.23613 3.07281ZM1.25077 5.90201L1.70625 5.58269L2.14695 5.90201L2.00994 5.33375L2.36386 4.97364H1.91342L1.70561 4.50988L1.52839 4.97364H1L1.40455 5.33375L1.25077 5.90201ZM4.21613 5.58269L3.76066 5.90201L3.91443 5.33375L3.50988 4.97364H4.03828L4.2155 4.50988L4.4233 4.97364H4.87374L4.51982 5.33375L4.65684 5.90201L4.21613 5.58269ZM6.27054 5.90201L6.72602 5.58269L7.16672 5.90201L7.0297 5.33375L7.38363 4.97364H6.93319L6.72538 4.50988L6.54816 4.97364H6.01977L6.42432 5.33375L6.27054 5.90201ZM9.23613 5.58269L8.78065 5.90201L8.93442 5.33375L8.52988 4.97364H9.05827L9.23549 4.50988L9.44329 4.97364H9.89374L9.53981 5.33375L9.67683 5.90201L9.23613 5.58269ZM1.25077 8.41189L1.70625 8.09257L2.14695 8.41189L2.00994 7.84364L2.36386 7.48352H1.91342L1.70561 7.01977L1.52839 7.48352H1L1.40455 7.84364L1.25077 8.41189ZM4.21613 8.09257L3.76066 8.41189L3.91443 7.84364L3.50988 7.48352H4.03828L4.2155 7.01977L4.4233 7.48352H4.87374L4.51982 7.84364L4.65684 8.41189L4.21613 8.09257ZM6.27054 8.41189L6.72602 8.09257L7.16672 8.41189L7.0297 7.84364L7.38363 7.48352H6.93319L6.72538 7.01977L6.54816 7.48352H6.01977L6.42432 7.84364L6.27054 8.41189ZM9.23613 8.09257L8.78065 8.41189L8.93442 7.84364L8.52988 7.48352H9.05827L9.23549 7.01977L9.44329 7.48352H9.89374L9.53981 7.84364L9.67683 8.41189L9.23613 8.09257ZM11.2905 3.39212L11.746 3.07281L12.1867 3.39212L12.0497 2.82387L12.4036 2.46375H11.9532L11.7454 2L11.5682 2.46375H11.0398L11.4443 2.82387L11.2905 3.39212ZM11.746 5.58269L11.2905 5.90201L11.4443 5.33375L11.0398 4.97364H11.5682L11.7454 4.50988L11.9532 4.97364H12.4036L12.0497 5.33375L12.1867 5.90201L11.746 5.58269ZM11.2905 8.41189L11.746 8.09257L12.1867 8.41189L12.0497 7.84364L12.4036 7.48352H11.9532L11.7454 7.01977L11.5682 7.48352H11.0398L11.4443 7.84364L11.2905 8.41189ZM2.96119 4.32797L2.50572 4.64729L2.65949 4.07904L2.25494 3.71892H2.78334L2.96056 3.25517L3.16836 3.71892H3.6188L3.26488 4.07904L3.4019 4.64729L2.96119 4.32797ZM5.0156 4.64729L5.47108 4.32797L5.91178 4.64729L5.77476 4.07904L6.12868 3.71892H5.67824L5.47044 3.25517L5.29322 3.71892H4.76483L5.16937 4.07904L5.0156 4.64729ZM7.98096 4.32797L7.52548 4.64729L7.67926 4.07904L7.27471 3.71892H7.8031L7.98032 3.25517L8.18813 3.71892H8.63857L8.28465 4.07904L8.42166 4.64729L7.98096 4.32797ZM2.50572 7.15717L2.96119 6.83786L3.4019 7.15717L3.26488 6.58892L3.6188 6.2288H3.16836L2.96056 5.76505L2.78334 6.2288H2.25494L2.65949 6.58892L2.50572 7.15717ZM5.47108 6.83786L5.0156 7.15717L5.16937 6.58892L4.76483 6.2288H5.29322L5.47044 5.76505L5.67824 6.2288H6.12868L5.77476 6.58892L5.91178 7.15717L5.47108 6.83786ZM7.52548 7.15717L7.98096 6.83786L8.42166 7.15717L8.28465 6.58892L8.63857 6.2288H8.18813L7.98032 5.76505L7.8031 6.2288H7.27471L7.67926 6.58892L7.52548 7.15717ZM10.4911 4.32797L10.0356 4.64729L10.1894 4.07904L9.78482 3.71892H10.3132L10.4904 3.25517L10.6982 3.71892H11.1487L10.7948 4.07904L10.9318 4.64729L10.4911 4.32797ZM10.0356 7.15717L10.4911 6.83786L10.9318 7.15717L10.7948 6.58892L11.1487 6.2288H10.6982L10.4904 5.76505L10.3132 6.2288H9.78482L10.1894 6.58892L10.0356 7.15717Z" fill="#F7FCFF"/>
</g>
<defs>
<clipPath id="clip0_566_15980">
<rect width="24" height="18" rx="2" fill="white"/>
</clipPath>
</defs>
</svg>
