<svg width="16" height="16" viewBox="0 0 16 16" fill="none" xmlns="http://www.w3.org/2000/svg">
<path d="M0.614128 4.35688C0.258943 4.56999 0.143769 5.03069 0.35688 5.38587C0.569991 5.74106 1.03069 5.85623 1.38587 5.64312L0.614128 4.35688ZM6 2L6.45 1.4C6.20605 1.21704 5.87561 1.19999 5.61413 1.35688L6 2ZM10 5L9.55 5.6C9.82363 5.80522 10.2014 5.79932 10.4685 5.58565L10 5ZM15.4685 1.58565C15.792 1.32689 15.8444 0.854925 15.5857 0.531479C15.3269 0.208032 14.8549 0.155591 14.5315 0.414348L15.4685 1.58565ZM13.25 15C13.25 15.4142 13.5858 15.75 14 15.75C14.4142 15.75 14.75 15.4142 14.75 15H13.25ZM14.75 7C14.75 6.58579 14.4142 6.25 14 6.25C13.5858 6.25 13.25 6.58579 13.25 7H14.75ZM5.25 15C5.25 15.4142 5.58579 15.75 6 15.75C6.41421 15.75 6.75 15.4142 6.75 15H5.25ZM6.75 7C6.75 6.58579 6.41421 6.25 6 6.25C5.58579 6.25 5.25 6.58579 5.25 7H6.75ZM9.25 15C9.25 15.4142 9.58579 15.75 10 15.75C10.4142 15.75 10.75 15.4142 10.75 15H9.25ZM10.75 10C10.75 9.58579 10.4142 9.25 10 9.25C9.58579 9.25 9.25 9.58579 9.25 10H10.75ZM1.25 15C1.25 15.4142 1.58579 15.75 2 15.75C2.41421 15.75 2.75 15.4142 2.75 15H1.25ZM2.75 10C2.75 9.58579 2.41421 9.25 2 9.25C1.58579 9.25 1.25 9.58579 1.25 10H2.75ZM1.38587 5.64312L6.38587 2.64312L5.61413 1.35688L0.614128 4.35688L1.38587 5.64312ZM5.55 2.6L9.55 5.6L10.45 4.4L6.45 1.4L5.55 2.6ZM10.4685 5.58565L15.4685 1.58565L14.5315 0.414348L9.53148 4.41435L10.4685 5.58565ZM14.75 15V7H13.25V15H14.75ZM6.75 15V7H5.25V15H6.75ZM10.75 15V10H9.25V15H10.75ZM2.75 15V10H1.25V15H2.75Z" fill="black"/>
</svg>
