<svg width="16" height="16" viewBox="0 0 16 16" fill="none" xmlns="http://www.w3.org/2000/svg">
<path fill-rule="evenodd" clip-rule="evenodd" d="M1 8.00019C1.00024 4.66068 3.35944 1.78639 6.63483 1.1351C9.91021 0.483818 13.1895 2.23693 14.4673 5.32231C15.7451 8.40769 14.6655 11.966 11.8887 13.8212C9.11186 15.6764 5.41127 15.3117 3.05 12.9502C1.73728 11.6373 0.999866 9.85675 1 8.00019Z" stroke="black" stroke-width="1.5" stroke-linecap="round" stroke-linejoin="round"/>
<path d="M4.84477 10.0937C4.55182 10.3866 4.55173 10.8614 4.84457 11.1544C5.13741 11.4473 5.61228 11.4474 5.90523 11.1546L4.84477 10.0937ZM8.53023 8.53058C8.82318 8.23774 8.82327 7.76287 8.53043 7.46992C8.23759 7.17697 7.76272 7.17688 7.46977 7.46971L8.53023 8.53058ZM7.46947 7.47002C7.17669 7.76302 7.17687 8.2379 7.46987 8.53068C7.76288 8.82346 8.23775 8.82328 8.53053 8.53027L7.46947 7.47002ZM11.1545 5.90427C11.4473 5.61127 11.4471 5.1364 11.1541 4.84361C10.8611 4.55083 10.3862 4.55101 10.0935 4.84402L11.1545 5.90427ZM8.53023 7.46971C8.23728 7.17688 7.76241 7.17697 7.46957 7.46992C7.17673 7.76287 7.17682 8.23774 7.46977 8.53058L8.53023 7.46971ZM10.0948 11.1546C10.3877 11.4474 10.8626 11.4473 11.1554 11.1544C11.4483 10.8614 11.4482 10.3866 11.1552 10.0937L10.0948 11.1546ZM7.46957 8.53037C7.76241 8.82332 8.23728 8.82341 8.53023 8.53058C8.82318 8.23774 8.82327 7.76287 8.53043 7.46992L7.46957 8.53037ZM5.90543 4.84392C5.61259 4.55097 5.13772 4.55088 4.84477 4.84371C4.55182 5.13655 4.55173 5.61143 4.84457 5.90437L5.90543 4.84392ZM5.90523 11.1546L8.53023 8.53058L7.46977 7.46971L4.84477 10.0937L5.90523 11.1546ZM8.53053 8.53027L11.1545 5.90427L10.0935 4.84402L7.46947 7.47002L8.53053 8.53027ZM7.46977 8.53058L10.0948 11.1546L11.1552 10.0937L8.53023 7.46971L7.46977 8.53058ZM8.53043 7.46992L5.90543 4.84392L4.84457 5.90437L7.46957 8.53037L8.53043 7.46992Z" fill="black"/>
</svg>
