<svg width="16" height="16" viewBox="0 0 16 16" fill="none" xmlns="http://www.w3.org/2000/svg">
<path d="M3.88204 6.234C3.46783 6.234 3.13204 6.56979 3.13204 6.984C3.13204 7.39821 3.46783 7.734 3.88204 7.734V6.234ZM9.64704 7.734C10.0613 7.734 10.397 7.39821 10.397 6.984C10.397 6.56979 10.0613 6.234 9.64704 6.234V7.734ZM4.60004 8.342C4.18583 8.342 3.85004 8.67779 3.85004 9.092C3.85004 9.50621 4.18583 9.842 4.60004 9.842V8.342ZM8.92604 9.842C9.34026 9.842 9.67604 9.50621 9.67604 9.092C9.67604 8.67779 9.34026 8.342 8.92604 8.342V9.842ZM3.39534 2.77227C2.9868 2.84059 2.711 3.22716 2.77932 3.6357C2.84764 4.04424 3.23421 4.32005 3.64275 4.25173L3.39534 2.77227ZM4.01904 3.471L4.0175 4.221H4.01904V3.471ZM9.51904 3.471L9.5247 2.721H9.51904V3.471ZM12.535 6.532L11.785 6.52655V6.532H12.535ZM12.535 10.248L11.785 10.248L11.785 10.2489L12.535 10.248ZM11.7486 10.666C11.6762 11.0739 11.9482 11.4631 12.3561 11.5355C12.7639 11.6078 13.1532 11.3358 13.2255 10.928L11.7486 10.666ZM3.6494 4.25058C4.05731 4.17859 4.32962 3.78955 4.25763 3.38164C4.18563 2.97373 3.79659 2.70142 3.38869 2.77342L3.6494 4.25058ZM1.00004 6.531L1.75006 6.531L1.75003 6.52696L1.00004 6.531ZM1.00004 15H0.250045C0.250045 15.2663 0.391215 15.5126 0.620962 15.6471C0.850709 15.7817 1.13459 15.7844 1.36683 15.6542L1.00004 15ZM4.01604 13.309V12.559C3.88759 12.559 3.7613 12.592 3.64926 12.6548L4.01604 13.309ZM9.51604 13.309V14.059L9.52097 14.059L9.51604 13.309ZM13.2199 10.9289C13.2911 10.5209 13.018 10.1324 12.61 10.0612C12.2019 9.98995 11.8134 10.263 11.7422 10.6711L13.2199 10.9289ZM2.78008 3.38379C2.70928 3.79191 2.98272 4.18016 3.39084 4.25096C3.79896 4.32177 4.1872 4.04832 4.25801 3.64021L2.78008 3.38379ZM6.48704 1V0.249988L6.48274 0.250012L6.48704 1ZM11.987 1L11.9934 0.25H11.987V1ZM15 4.061L14.25 4.05554V4.061H15ZM15 7.777H14.25L14.2501 7.78202L15 7.777ZM12.3507 10.0614C11.9428 10.1334 11.6705 10.5224 11.7425 10.9304C11.8145 11.3383 12.2035 11.6106 12.6114 11.5386L12.3507 10.0614ZM3.88204 7.734H9.64704V6.234H3.88204V7.734ZM4.60004 9.842H8.92604V8.342H4.60004V9.842ZM3.64275 4.25173C3.76659 4.23102 3.89194 4.22074 4.0175 4.221L4.02059 2.721C3.81111 2.72057 3.60196 2.73772 3.39534 2.77227L3.64275 4.25173ZM4.01904 4.221H9.51904V2.721H4.01904V4.221ZM9.51339 4.22098C10.7773 4.23051 11.7943 5.26265 11.7851 6.52655L13.285 6.53745C13.3002 4.4453 11.6168 2.7368 9.5247 2.72102L9.51339 4.22098ZM11.785 6.532V10.248H13.285V6.532H11.785ZM11.785 10.2489C11.7852 10.3887 11.773 10.5283 11.7486 10.666L13.2255 10.928C13.2654 10.7032 13.2853 10.4754 13.285 10.2471L11.785 10.2489ZM3.38869 2.77342C1.56575 3.09516 0.240093 4.68395 0.250056 6.53504L1.75003 6.52696C1.744 5.40676 2.54624 4.44529 3.6494 4.25058L3.38869 2.77342ZM0.250045 6.531V15H1.75004V6.531H0.250045ZM1.36683 15.6542L4.38283 13.9632L3.64926 12.6548L0.633255 14.3458L1.36683 15.6542ZM4.01604 14.059H9.51604V12.559H4.01604V14.059ZM9.52097 14.059C11.3485 14.047 12.9057 12.7293 13.2199 10.9289L11.7422 10.6711C11.5527 11.757 10.6134 12.5518 9.51112 12.559L9.52097 14.059ZM4.25801 3.64021C4.44671 2.55256 5.38748 1.75633 6.49135 1.74999L6.48274 0.250012C4.65263 0.260524 3.09293 1.58059 2.78008 3.38379L4.25801 3.64021ZM6.48704 1.75H11.987V0.25H6.48704V1.75ZM11.9806 1.74997C13.2437 1.76075 14.2593 2.79252 14.2501 4.05554L15.75 4.06646C15.7652 1.97576 14.0841 0.267859 11.9934 0.250027L11.9806 1.74997ZM14.25 4.061V7.777H15.75V4.061H14.25ZM14.2501 7.78202C14.2576 8.90336 13.455 9.86652 12.3507 10.0614L12.6114 11.5386C14.4362 11.2165 15.7624 9.62494 15.75 7.77198L14.2501 7.78202Z" fill="black"/>
</svg>
