<svg width="16" height="16" viewBox="0 0 16 16" fill="none" xmlns="http://www.w3.org/2000/svg">
<path d="M0.25 3.00003C0.25 3.41424 0.585786 3.75003 1 3.75003C1.41421 3.75003 1.75 3.41424 1.75 3.00003H0.25ZM2.1 1.88903L1.81451 1.19549C1.80534 1.19927 1.79623 1.20323 1.78721 1.20737L2.1 1.88903ZM5.033 1.15203L5.10927 1.89814C5.11457 1.8976 5.11986 1.897 5.12515 1.89635L5.033 1.15203ZM7.533 1.00003L7.53171 1.75003H7.533V1.00003ZM8.466 1.00003V1.75003L8.46729 1.75003L8.466 1.00003ZM10.966 1.15203L10.8739 1.89635C10.8792 1.89701 10.8845 1.89761 10.8898 1.89815L10.966 1.15203ZM13.9 1.88903L14.2128 1.20737C14.2038 1.20322 14.1946 1.19926 14.1855 1.19548L13.9 1.88903ZM14.25 3.00003C14.25 3.41424 14.5858 3.75003 15 3.75003C15.4142 3.75003 15.75 3.41424 15.75 3.00003H14.25ZM1.75 3.00003C1.75 2.58582 1.41421 2.25003 1 2.25003C0.585786 2.25003 0.25 2.58582 0.25 3.00003H1.75ZM2.914 4.41403L2.69463 5.13123C2.70173 5.1334 2.70887 5.13547 2.71603 5.13743L2.914 4.41403ZM7.533 5.00003V4.24995L7.52195 4.25011L7.533 5.00003ZM8.466 5.00003L8.4771 4.25003H8.466V5.00003ZM13.086 4.41403L13.284 5.13743C13.2911 5.13547 13.2983 5.1334 13.3054 5.13123L13.086 4.41403ZM15.75 3.00003C15.75 2.58582 15.4142 2.25003 15 2.25003C14.5858 2.25003 14.25 2.58582 14.25 3.00003H15.75ZM1.75 3.00003C1.75 2.58582 1.41421 2.25003 1 2.25003C0.585786 2.25003 0.25 2.58582 0.25 3.00003H1.75ZM0.25 8.00003C0.25 8.41424 0.585786 8.75003 1 8.75003C1.41421 8.75003 1.75 8.41424 1.75 8.00003H0.25ZM15.75 3.00003C15.75 2.58582 15.4142 2.25003 15 2.25003C14.5858 2.25003 14.25 2.58582 14.25 3.00003H15.75ZM14.25 8.00003C14.25 8.41424 14.5858 8.75003 15 8.75003C15.4142 8.75003 15.75 8.41424 15.75 8.00003H14.25ZM1.75 8.00003C1.75 7.58582 1.41421 7.25003 1 7.25003C0.585786 7.25003 0.25 7.58582 0.25 8.00003H1.75ZM2.914 9.41403L2.69463 10.1312C2.70173 10.1334 2.70887 10.1355 2.71603 10.1374L2.914 9.41403ZM7.533 10V9.24995L7.52195 9.25011L7.533 10ZM8.466 10L8.4771 9.25003H8.466V10ZM13.086 9.41403L13.284 10.1374C13.2911 10.1355 13.2983 10.1334 13.3054 10.1312L13.086 9.41403ZM15.75 8.00003C15.75 7.58582 15.4142 7.25003 15 7.25003C14.5858 7.25003 14.25 7.58582 14.25 8.00003H15.75ZM1.75 8.00003C1.75 7.58582 1.41421 7.25003 1 7.25003C0.585786 7.25003 0.25 7.58582 0.25 8.00003H1.75ZM2.914 14.414L2.69463 15.1312C2.70173 15.1334 2.70887 15.1355 2.71603 15.1374L2.914 14.414ZM7.533 15V14.2499L7.52195 14.2501L7.533 15ZM8.466 15L8.4771 14.25H8.466V15ZM13.086 14.414L13.284 15.1374C13.2911 15.1355 13.2983 15.1334 13.3054 15.1312L13.086 14.414ZM15.75 8.00003C15.75 7.58582 15.4142 7.25003 15 7.25003C14.5858 7.25003 14.25 7.58582 14.25 8.00003H15.75ZM1.75 3.00003C1.75 3.05846 1.71815 3.04218 1.81323 2.94645C1.91209 2.84693 2.09951 2.71444 2.41279 2.57069L1.78721 1.20737C1.38349 1.39262 1.02091 1.61563 0.749016 1.88936C0.47335 2.16688 0.25 2.5416 0.25 3.00003H1.75ZM2.38549 2.58257C3.25569 2.22436 4.1731 1.99384 5.10927 1.89814L4.95673 0.405918C3.87675 0.516312 2.8184 0.782253 1.81451 1.19549L2.38549 2.58257ZM5.12515 1.89635C5.9235 1.79751 6.72726 1.74864 7.53171 1.75003L7.53429 0.250031C6.66737 0.248538 5.80121 0.301201 4.94085 0.407712L5.12515 1.89635ZM7.533 1.75003H8.466V0.25003H7.533V1.75003ZM8.46729 1.75003C9.27174 1.74864 10.0755 1.79751 10.8739 1.89635L11.0581 0.407712C10.1978 0.301201 9.33163 0.248538 8.46471 0.250031L8.46729 1.75003ZM10.8898 1.89815C11.8263 1.99376 12.744 2.22428 13.6145 2.58258L14.1855 1.19548C13.1812 0.782143 12.1225 0.5162 11.0422 0.405908L10.8898 1.89815ZM13.5872 2.57069C13.9005 2.71444 14.0879 2.84693 14.1868 2.94645C14.2819 3.04218 14.25 3.05846 14.25 3.00003H15.75C15.75 2.5416 15.5266 2.16688 15.251 1.88936C14.9791 1.61563 14.6165 1.39262 14.2128 1.20737L13.5872 2.57069ZM0.25 3.00003C0.25 3.61363 0.646004 4.06864 1.05149 4.36831C1.4717 4.67886 2.03924 4.93076 2.69463 5.13123L3.13337 3.69683C2.56276 3.52229 2.1733 3.3322 1.94301 3.162C1.698 2.98092 1.75 2.91643 1.75 3.00003H0.25ZM2.71603 5.13743C4.28853 5.56776 5.91391 5.77397 7.54405 5.74995L7.52195 4.25011C6.03295 4.27205 4.54831 4.0837 3.11197 3.69063L2.71603 5.13743ZM7.533 5.75003H8.466V4.25003H7.533V5.75003ZM8.45491 5.74995C10.0854 5.77407 11.7111 5.56786 13.284 5.13743L12.888 3.69063C11.4514 4.08379 9.96641 4.27214 8.47709 4.25011L8.45491 5.74995ZM13.3054 5.13123C13.9605 4.93084 14.5281 4.67923 14.9484 4.3688C15.3542 4.069 15.75 3.61396 15.75 3.00003H14.25C14.25 2.9171 14.3018 2.98156 14.0571 3.16226C13.8269 3.33233 13.4375 3.52222 12.8666 3.69683L13.3054 5.13123ZM0.25 3.00003V8.00003H1.75V3.00003H0.25ZM14.25 3.00003V8.00003H15.75V3.00003H14.25ZM0.25 8.00003C0.25 8.61363 0.646004 9.06864 1.05149 9.36831C1.4717 9.67886 2.03924 9.93076 2.69463 10.1312L3.13337 8.69683C2.56276 8.52229 2.1733 8.3322 1.94301 8.162C1.698 7.98092 1.75 7.91643 1.75 8.00003H0.25ZM2.71603 10.1374C4.28853 10.5678 5.91391 10.774 7.54405 10.7499L7.52195 9.25011C6.03295 9.27205 4.54831 9.0837 3.11197 8.69063L2.71603 10.1374ZM7.533 10.75H8.466V9.25003H7.533V10.75ZM8.45491 10.7499C10.0854 10.7741 11.7111 10.5679 13.284 10.1374L12.888 8.69063C11.4514 9.08379 9.96641 9.27214 8.47709 9.25011L8.45491 10.7499ZM13.3054 10.1312C13.9605 9.93084 14.5281 9.67923 14.9484 9.3688C15.3542 9.069 15.75 8.61396 15.75 8.00003H14.25C14.25 7.9171 14.3018 7.98156 14.0571 8.16226C13.8269 8.33233 13.4375 8.52222 12.8666 8.69683L13.3054 10.1312ZM0.25 8.00003V13H1.75V8.00003H0.25ZM0.25 13C0.25 13.6136 0.646004 14.0686 1.05149 14.3683C1.4717 14.6789 2.03924 14.9308 2.69463 15.1312L3.13337 13.6968C2.56276 13.5223 2.1733 13.3322 1.94301 13.162C1.698 12.9809 1.75 12.9164 1.75 13H0.25ZM2.71603 15.1374C4.28853 15.5678 5.91391 15.774 7.54405 15.7499L7.52195 14.2501C6.03295 14.2721 4.54831 14.0837 3.11197 13.6906L2.71603 15.1374ZM7.533 15.75H8.466V14.25H7.533V15.75ZM8.45491 15.7499C10.0854 15.7741 11.7111 15.5679 13.284 15.1374L12.888 13.6906C11.4514 14.0838 9.96641 14.2721 8.47709 14.2501L8.45491 15.7499ZM13.3054 15.1312C13.9608 14.9308 14.5283 14.6789 14.9485 14.3683C15.354 14.0686 15.75 13.6136 15.75 13H14.25C14.25 12.9164 14.302 12.9809 14.057 13.162C13.8267 13.3322 13.4372 13.5223 12.8666 13.6968L13.3054 15.1312ZM15.75 13V8.00003H14.25V13H15.75Z" fill="black"/>
</svg>
