<svg width="20" height="16" viewBox="0 0 20 16" fill="none" xmlns="http://www.w3.org/2000/svg">
<path fill-rule="evenodd" clip-rule="evenodd" d="M1 3V13C1 14.1046 1.89543 15 3 15H17C18.1046 15 19 14.1046 19 13V3C19 1.89543 18.1046 1 17 1H3C1.89543 1 1 1.89543 1 3Z" stroke="black" stroke-width="1.5" stroke-linecap="round" stroke-linejoin="round"/>
<path d="M13 6H16" stroke="black" stroke-width="1.5" stroke-linecap="round"/>
<path d="M13 9H16" stroke="black" stroke-width="1.5" stroke-linecap="round"/>
<path fill-rule="evenodd" clip-rule="evenodd" d="M9 6C9 7.10457 8.10457 8 7 8C5.89543 8 5 7.10457 5 6C5 4.89543 5.89543 4 7 4C7.53043 4 8.03914 4.21071 8.41421 4.58579C8.78929 4.96086 9 5.46957 9 6Z" stroke="black" stroke-width="1.5" stroke-linecap="round" stroke-linejoin="round"/>
<path d="M3 12C5.783 8.86301 9.052 9.84901 11 12" stroke="black" stroke-width="1.5" stroke-linecap="round"/>
</svg>
