<svg width="16" height="16" viewBox="0 0 16 16" fill="none" xmlns="http://www.w3.org/2000/svg">
<path fill-rule="evenodd" clip-rule="evenodd" d="M5.80499 5.01975C5.12799 6.03575 4.51899 7.05274 4.14499 7.71975L3.20599 6.74475C2.62185 6.12774 2.62185 5.16175 3.20599 4.54475C3.48247 4.25472 3.8653 4.09003 4.26599 4.08875H6.45099C6.23299 4.38775 6.01599 4.69975 5.80499 5.01975Z" stroke="black" stroke-width="1.5" stroke-linecap="round" stroke-linejoin="round"/>
<path fill-rule="evenodd" clip-rule="evenodd" d="M10.98 10.1947C9.96403 10.8717 8.94703 11.4807 8.28003 11.8547L9.25503 12.7937C9.87204 13.3778 10.838 13.3778 11.455 12.7937C11.7451 12.5172 11.9097 12.1344 11.911 11.7337V9.54871C11.612 9.76671 11.3 9.98371 10.98 10.1947Z" stroke="black" stroke-width="1.5" stroke-linecap="round" stroke-linejoin="round"/>
<path d="M3.84944 9.72991C4.14227 9.43696 4.14217 8.96208 3.84922 8.66925C3.55626 8.37642 3.08139 8.37653 2.78856 8.66948L3.84944 9.72991ZM0.469556 10.9895C0.176726 11.2824 0.176828 11.7573 0.469784 12.0501C0.762741 12.343 1.23761 12.3429 1.53044 12.0499L0.469556 10.9895ZM5.58856 11.4708C5.88133 11.1778 5.88112 10.7029 5.5881 10.4101C5.29508 10.1174 4.82021 10.1176 4.52744 10.4106L5.58856 11.4708ZM3.36944 11.5696C3.07667 11.8626 3.07688 12.3375 3.3699 12.6303C3.66292 12.923 4.13779 12.9228 4.43056 12.6298L3.36944 11.5696ZM4.67469 7.18473C4.38144 6.89219 3.90657 6.89276 3.61403 7.18601C3.32149 7.47926 3.32206 7.95413 3.61531 8.24667L4.67469 7.18473ZM6.217 9.7827L6.74797 9.25301L6.74669 9.25173L6.217 9.7827ZM7.75303 12.3844C8.04557 12.6776 8.52044 12.6782 8.81369 12.3857C9.10694 12.0931 9.10751 11.6183 8.81497 11.325L7.75303 12.3844ZM5.82849 3.66439C5.59747 4.00819 5.68889 4.47418 6.03269 4.7052C6.37649 4.93623 6.84248 4.84481 7.07351 4.50101L5.82849 3.66439ZM8.269 1.9517L7.7896 1.37492C7.77875 1.38393 7.76817 1.39325 7.75785 1.40286L8.269 1.9517ZM14.906 1.0937L15.6523 1.01934C15.6169 0.663933 15.3358 0.382807 14.9804 0.347394L14.906 1.0937ZM14.048 7.7317L14.5968 8.24285C14.6065 8.23246 14.6159 8.2218 14.625 8.21088L14.048 7.7317ZM11.4987 8.92719C11.1549 9.15822 11.0635 9.62421 11.2945 9.96801C11.5255 10.3118 11.9915 10.4032 12.3353 10.1722L11.4987 8.92719ZM7.33022 13.2111C7.62317 12.9183 7.62327 12.4434 7.33044 12.1505C7.03761 11.8575 6.56274 11.8574 6.26978 12.1503L7.33022 13.2111ZM3.94978 14.4693C3.65683 14.7621 3.65673 15.237 3.94956 15.5299C4.24239 15.8229 4.71726 15.823 5.01022 15.5301L3.94978 14.4693ZM12.8613 4.19903C13.1542 3.90614 13.1542 3.43126 12.8613 3.13837C12.5684 2.84548 12.0936 2.84548 11.8007 3.13837L12.8613 4.19903ZM10.5637 4.37537C10.2708 4.66826 10.2708 5.14314 10.5637 5.43603C10.8566 5.72892 11.3314 5.72892 11.6243 5.43603L10.5637 4.37537ZM2.78856 8.66948L0.469556 10.9895L1.53044 12.0499L3.84944 9.72991L2.78856 8.66948ZM4.52744 10.4106L3.36944 11.5696L4.43056 12.6298L5.58856 11.4708L4.52744 10.4106ZM3.61531 8.24667L5.68731 10.3137L6.74669 9.25173L4.67469 7.18473L3.61531 8.24667ZM5.68603 10.3124L7.75303 12.3844L8.81497 11.325L6.74797 9.25301L5.68603 10.3124ZM7.07351 4.50101C7.56399 3.7711 8.13662 3.09988 8.78015 2.50053L7.75785 1.40286C7.03034 2.08042 6.38299 2.83923 5.82849 3.66439L7.07351 4.50101ZM8.7484 2.52848C8.95335 2.35813 9.30564 2.19347 9.81334 2.06099C10.3092 1.9316 10.8943 1.8478 11.5113 1.80023C12.7457 1.70506 14.0326 1.76038 14.8316 1.84L14.9804 0.347394C14.1134 0.261014 12.7363 0.201338 11.396 0.304668C10.7256 0.356351 10.0456 0.450173 9.43462 0.609591C8.83548 0.765927 8.23915 1.00126 7.7896 1.37492L8.7484 2.52848ZM14.1597 1.16806C14.2393 1.96713 14.2946 3.25397 14.1995 4.48855C14.1519 5.10561 14.0681 5.69077 13.9387 6.18682C13.8062 6.69466 13.6415 7.04725 13.471 7.25251L14.625 8.21088C14.9985 7.76115 15.2338 7.16473 15.3901 6.56545C15.5495 5.95438 15.6433 5.27429 15.695 4.60384C15.7984 3.26343 15.7387 1.88627 15.6523 1.01934L14.1597 1.16806ZM13.4992 7.22054C12.8998 7.86408 12.2286 8.4367 11.4987 8.92719L12.3353 10.1722C13.1605 9.61771 13.9193 8.97036 14.5968 8.24285L13.4992 7.22054ZM6.26978 12.1503L3.94978 14.4693L5.01022 15.5301L7.33022 13.2111L6.26978 12.1503ZM11.8007 3.13837L10.5637 4.37537L11.6243 5.43603L12.8613 4.19903L11.8007 3.13837Z" fill="black"/>
</svg>
