<svg width="16" height="17" viewBox="0 0 16 17" fill="none" xmlns="http://www.w3.org/2000/svg">
<path fill-rule="evenodd" clip-rule="evenodd" d="M5.308 1.00001H10.829C10.8863 1.00001 10.9433 1.00367 11 1.01101C13.2473 1.16817 14.9924 3.0332 15 5.28601V11.715C14.9917 14.0871 13.0641 16.0044 10.692 16H5.308C2.93551 16.0044 1.00772 14.0865 1 11.714V5.28601C1.00772 2.91353 2.93551 0.995581 5.308 1.00001Z" stroke="black" stroke-width="1.5" stroke-linecap="round" stroke-linejoin="round"/>
<path d="M15 6.03599C15.4142 6.03599 15.75 5.7002 15.75 5.28599C15.75 4.87177 15.4142 4.53599 15 4.53599V6.03599ZM11 5.28599H10.25C10.25 5.7002 10.5858 6.03599 11 6.03599V5.28599ZM11.75 1.01099C11.75 0.596773 11.4142 0.260986 11 0.260986C10.5858 0.260986 10.25 0.596773 10.25 1.01099H11.75ZM6.53033 6.46966C6.23744 6.17676 5.76256 6.17676 5.46967 6.46966C5.17678 6.76255 5.17678 7.23742 5.46967 7.53032L6.53033 6.46966ZM7.46967 9.53032C7.76256 9.82321 8.23744 9.82321 8.53033 9.53032C8.82322 9.23742 8.82322 8.76255 8.53033 8.46966L7.46967 9.53032ZM8.53033 8.46966C8.23744 8.17676 7.76256 8.17676 7.46967 8.46966C7.17678 8.76255 7.17678 9.23742 7.46967 9.53032L8.53033 8.46966ZM9.46967 11.5303C9.76256 11.8232 10.2374 11.8232 10.5303 11.5303C10.8232 11.2374 10.8232 10.7625 10.5303 10.4697L9.46967 11.5303ZM8.53033 9.53032C8.82322 9.23742 8.82322 8.76255 8.53033 8.46966C8.23744 8.17676 7.76256 8.17676 7.46967 8.46966L8.53033 9.53032ZM5.46967 10.4697C5.17678 10.7625 5.17678 11.2374 5.46967 11.5303C5.76256 11.8232 6.23744 11.8232 6.53033 11.5303L5.46967 10.4697ZM7.46967 8.46966C7.17678 8.76255 7.17678 9.23742 7.46967 9.53032C7.76256 9.82321 8.23744 9.82321 8.53033 9.53032L7.46967 8.46966ZM10.5303 7.53032C10.8232 7.23742 10.8232 6.76255 10.5303 6.46966C10.2374 6.17676 9.76256 6.17676 9.46967 6.46966L10.5303 7.53032ZM15 4.53599H11V6.03599H15V4.53599ZM11.75 5.28599V1.01099H10.25V5.28599H11.75ZM5.46967 7.53032L7.46967 9.53032L8.53033 8.46966L6.53033 6.46966L5.46967 7.53032ZM7.46967 9.53032L9.46967 11.5303L10.5303 10.4697L8.53033 8.46966L7.46967 9.53032ZM7.46967 8.46966L5.46967 10.4697L6.53033 11.5303L8.53033 9.53032L7.46967 8.46966ZM8.53033 9.53032L10.5303 7.53032L9.46967 6.46966L7.46967 8.46966L8.53033 9.53032Z" fill="black"/>
</svg>
