<svg width="16" height="16" viewBox="0 0 16 16" fill="none" xmlns="http://www.w3.org/2000/svg">
<path fill-rule="evenodd" clip-rule="evenodd" d="M6.69002 3.84996C7.19342 3.09341 7.0669 2.0823 6.3926 1.47312C5.71829 0.863941 4.69957 0.840401 3.99785 1.41779C3.29614 1.99517 3.12304 2.99935 3.59096 3.77835C4.05887 4.55735 5.02668 4.87624 5.86602 4.52796C6.20145 4.38801 6.48809 4.15215 6.69002 3.84996Z" stroke="black" stroke-width="1.5" stroke-linecap="round" stroke-linejoin="round"/>
<path fill-rule="evenodd" clip-rule="evenodd" d="M6.69002 14.165C7.19342 13.4084 7.0669 12.3973 6.3926 11.7881C5.71829 11.1789 4.69957 11.1554 3.99785 11.7328C3.29614 12.3102 3.12304 13.3144 3.59096 14.0934C4.05887 14.8724 5.02668 15.1912 5.86602 14.843C6.20145 14.703 6.48809 14.4672 6.69002 14.165V14.165Z" stroke="black" stroke-width="1.5" stroke-linecap="round" stroke-linejoin="round"/>
<path fill-rule="evenodd" clip-rule="evenodd" d="M9.30998 9.00695C8.80658 8.25039 8.93311 7.23929 9.60741 6.6301C10.2817 6.02092 11.3004 5.99738 12.0021 6.57477C12.7039 7.15215 12.877 8.15634 12.409 8.93534C11.9411 9.71433 10.9733 10.0332 10.134 9.68495C9.79856 9.54499 9.51191 9.30914 9.30998 9.00695V9.00695Z" stroke="black" stroke-width="1.5" stroke-linecap="round" stroke-linejoin="round"/>
<path d="M7 2.07599C6.58579 2.07599 6.25 2.41178 6.25 2.82599C6.25 3.2402 6.58579 3.57599 7 3.57599V2.07599ZM15 3.57599C15.4142 3.57599 15.75 3.2402 15.75 2.82599C15.75 2.41178 15.4142 2.07599 15 2.07599V3.57599ZM3.327 3.57599C3.74121 3.57599 4.077 3.2402 4.077 2.82599C4.077 2.41178 3.74121 2.07599 3.327 2.07599V3.57599ZM1 2.07599C0.585786 2.07599 0.25 2.41178 0.25 2.82599C0.25 3.2402 0.585786 3.57599 1 3.57599V2.07599ZM7 12.392C6.58579 12.392 6.25 12.7278 6.25 13.142C6.25 13.5562 6.58579 13.892 7 13.892V12.392ZM15 13.892C15.4142 13.892 15.75 13.5562 15.75 13.142C15.75 12.7278 15.4142 12.392 15 12.392V13.892ZM3.327 13.892C3.74121 13.892 4.077 13.5562 4.077 13.142C4.077 12.7278 3.74121 12.392 3.327 12.392V13.892ZM1 12.392C0.585786 12.392 0.25 12.7278 0.25 13.142C0.25 13.5562 0.585786 13.892 1 13.892V12.392ZM9 8.73399C9.41421 8.73399 9.75 8.3982 9.75 7.98399C9.75 7.56978 9.41421 7.23399 9 7.23399V8.73399ZM1 7.23399C0.585786 7.23399 0.25 7.56978 0.25 7.98399C0.25 8.3982 0.585786 8.73399 1 8.73399V7.23399ZM12.673 7.23399C12.2588 7.23399 11.923 7.56978 11.923 7.98399C11.923 8.3982 12.2588 8.73399 12.673 8.73399V7.23399ZM15 8.73399C15.4142 8.73399 15.75 8.3982 15.75 7.98399C15.75 7.56978 15.4142 7.23399 15 7.23399V8.73399ZM7 3.57599H15V2.07599H7V3.57599ZM3.327 2.07599H1V3.57599H3.327V2.07599ZM7 13.892H15V12.392H7V13.892ZM3.327 12.392H1V13.892H3.327V12.392ZM9 7.23399H1V8.73399H9V7.23399ZM12.673 8.73399H15V7.23399H12.673V8.73399Z" fill="black"/>
</svg>
