<svg width="17" height="16" viewBox="0 0 17 16" fill="none" xmlns="http://www.w3.org/2000/svg">
<path d="M4.11809 2.92205C4.11809 2.50783 3.7823 2.17205 3.36809 2.17205C2.95387 2.17205 2.61809 2.50783 2.61809 2.92205H4.11809ZM3.36809 11.386H2.61807L2.6181 11.3907L3.36809 11.386ZM3.75234 12.2962L3.22592 12.8305H3.22592L3.75234 12.2962ZM4.66809 12.667V11.917L4.66167 11.9171L4.66809 12.667ZM14.7001 12.667L14.7065 11.917H14.7001V12.667ZM15.6158 12.2962L16.1423 12.8305V12.8305L15.6158 12.2962ZM16.0001 11.386L16.7501 11.3907V11.386H16.0001ZM16.0001 4.20005H16.7501L16.7501 4.19542L16.0001 4.20005ZM15.6158 3.28985L15.0894 3.82407H15.0894L15.6158 3.28985ZM14.7001 2.91905V3.66907L14.7065 3.66902L14.7001 2.91905ZM10.1081 2.16905C9.69387 2.16905 9.35809 2.50483 9.35809 2.91905C9.35809 3.33326 9.69387 3.66905 10.1081 3.66905V2.16905ZM2.61909 2.91905C2.61909 3.33326 2.95487 3.66905 3.36909 3.66905C3.7833 3.66905 4.11909 3.33326 4.11909 2.91905H2.61909ZM3.36909 2.28105L2.61909 2.27641V2.28105H3.36909ZM3.75228 1.37192L4.2793 1.90553L3.75228 1.37192ZM4.66609 1.00005L4.66142 1.75005H4.66609V1.00005ZM8.81009 1.00005V1.75007L8.8165 1.75002L8.81009 1.00005ZM9.72584 1.37085L10.2522 0.836635V0.836635L9.72584 1.37085ZM10.1101 2.28105H10.8601L10.8601 2.27642L10.1101 2.28105ZM9.36009 2.92205C9.36009 3.33626 9.69587 3.67205 10.1101 3.67205C10.5243 3.67205 10.8601 3.33626 10.8601 2.92205H9.36009ZM3.37109 2.17205C2.95687 2.17205 2.62109 2.50783 2.62109 2.92205C2.62109 3.33626 2.95687 3.67205 3.37109 3.67205V2.17205ZM10.1081 3.67205C10.5223 3.67205 10.8581 3.33626 10.8581 2.92205C10.8581 2.50783 10.5223 2.17205 10.1081 2.17205V3.67205ZM14.3821 12.667C14.3821 12.2528 14.0463 11.917 13.6321 11.917C13.2179 11.917 12.8821 12.2528 12.8821 12.667H14.3821ZM13.6321 13.667H12.882L12.8822 13.6779L13.6321 13.667ZM13.2596 14.6028L13.797 15.1261L13.797 15.1261L13.2596 14.6028ZM12.3341 15V15.7501L12.3431 15.75L12.3341 15ZM2.30009 15L2.29214 15.75H2.30009V15ZM1.37467 14.605L0.838522 15.1294H0.838522L1.37467 14.605ZM1.00009 13.671L1.75009 13.6797V13.671H1.00009ZM1.00009 6.21805H1.75014L1.75004 6.20944L1.00009 6.21805ZM1.37467 5.28414L0.838522 4.75969H0.838522L1.37467 5.28414ZM2.30009 4.88905V4.13901L2.29215 4.13909L2.30009 4.88905ZM3.36809 5.63905C3.7823 5.63905 4.11809 5.30326 4.11809 4.88905C4.11809 4.47483 3.7823 4.13905 3.36809 4.13905V5.63905ZM2.61809 2.92205V11.386H4.11809V2.92205H2.61809ZM2.6181 11.3907C2.62144 11.9323 2.84013 12.4503 3.22592 12.8305L4.27875 11.762C4.17677 11.6615 4.11896 11.5246 4.11807 11.3814L2.6181 11.3907ZM3.22592 12.8305C3.61172 13.2106 4.1329 13.4217 4.6745 13.417L4.66167 11.9171C4.5185 11.9183 4.38073 11.8625 4.27875 11.762L3.22592 12.8305ZM4.66809 13.417H14.7001V11.917H4.66809V13.417ZM14.6937 13.417C15.2353 13.4217 15.7565 13.2106 16.1423 12.8305L15.0894 11.762C14.9874 11.8625 14.8497 11.9183 14.7065 11.9171L14.6937 13.417ZM16.1423 12.8305C16.528 12.4503 16.7467 11.9323 16.7501 11.3907L15.2501 11.3814C15.2492 11.5246 15.1914 11.6615 15.0894 11.762L16.1423 12.8305ZM16.7501 11.386V4.20005H15.2501V11.386H16.7501ZM16.7501 4.19542C16.7467 3.65381 16.528 3.13579 16.1423 2.75564L15.0894 3.82407C15.1914 3.92457 15.2492 4.0615 15.2501 4.20467L16.7501 4.19542ZM16.1423 2.75564C15.7565 2.37548 15.2353 2.16444 14.6937 2.16907L14.7065 3.66902C14.8497 3.6678 14.9874 3.72358 15.0894 3.82407L16.1423 2.75564ZM14.7001 2.16905H10.1081V3.66905H14.7001V2.16905ZM4.11909 2.91905V2.28105H2.61909V2.91905H4.11909ZM4.11907 2.28569C4.11996 2.14273 4.17759 2.00599 4.2793 1.90553L3.22525 0.838311C2.84048 1.21833 2.62245 1.73563 2.6191 2.27641L4.11907 2.28569ZM4.2793 1.90553C4.38101 1.80508 4.51846 1.74914 4.66142 1.75003L4.67076 0.250062C4.12998 0.246695 3.61001 0.458295 3.22525 0.838311L4.2793 1.90553ZM4.66609 1.75005H8.81009V0.250047H4.66609V1.75005ZM8.8165 1.75002C8.95967 1.7488 9.09744 1.80458 9.19943 1.90507L10.2522 0.836635C9.86646 0.456483 9.34527 0.245442 8.80367 0.250075L8.8165 1.75002ZM9.19943 1.90507C9.30141 2.00557 9.35922 2.1425 9.3601 2.28567L10.8601 2.27642C10.8567 1.73481 10.638 1.21679 10.2522 0.836635L9.19943 1.90507ZM9.36009 2.28105V2.92205H10.8601V2.28105H9.36009ZM3.37109 3.67205H10.1081V2.17205H3.37109V3.67205ZM12.8821 12.667V13.667H14.3821V12.667H12.8821ZM12.8822 13.6779C12.8843 13.8278 12.8268 13.9723 12.7223 14.0796L13.797 15.1261C14.1795 14.7332 14.39 14.2044 14.382 13.6561L12.8822 13.6779ZM12.7223 14.0796C12.6178 14.187 12.4748 14.2483 12.325 14.2501L12.3431 15.75C12.8914 15.7434 13.4145 15.5189 13.797 15.1261L12.7223 14.0796ZM12.3341 14.25H2.30009V15.75H12.3341V14.25ZM2.30803 14.2501C2.15837 14.2485 2.01547 14.1875 1.91082 14.0805L0.838522 15.1294C1.22153 15.5209 1.74445 15.7442 2.29214 15.75L2.30803 14.2501ZM1.91082 14.0805C1.80616 13.9735 1.74832 13.8293 1.75004 13.6797L0.250136 13.6624C0.243853 14.2101 0.455519 14.7379 0.838522 15.1294L1.91082 14.0805ZM1.75009 13.671V6.21805H0.250087V13.671H1.75009ZM1.75004 6.20944C1.74832 6.05978 1.80616 5.91558 1.91082 5.80859L0.838522 4.75969C0.45552 5.15124 0.243853 5.67896 0.250136 6.22665L1.75004 6.20944ZM1.91082 5.80859C2.01548 5.7016 2.15837 5.64059 2.30803 5.63901L2.29215 4.13909C1.74445 4.14489 1.22153 4.36815 0.838522 4.75969L1.91082 5.80859ZM2.30009 5.63905H3.36809V4.13905H2.30009V5.63905Z" fill="black"/>
</svg>
