<svg width="18" height="17" viewBox="0 0 18 17" fill="none" xmlns="http://www.w3.org/2000/svg">
<path d="M1.75 4C1.75 3.58579 1.41421 3.25 1 3.25C0.585788 3.25 0.250001 3.58579 0.250001 4H1.75ZM1 14.353L1.75 14.3539V14.353H1ZM1.4804 15.5168L2.01137 14.9871H2.01137L1.4804 15.5168ZM2.643 16L2.64209 16.75H2.643V16ZM15.357 16V16.75L15.3579 16.75L15.357 16ZM16.5196 15.5168L15.9886 14.9871L15.9886 14.9871L16.5196 15.5168ZM17 14.353H16.25L16.25 14.3539L17 14.353ZM17 5.647L16.25 5.64609V5.647H17ZM16.5196 4.48322L15.9886 5.01291V5.01291L16.5196 4.48322ZM15.357 4L15.3579 3.25H15.357V4ZM9.536 3.25C9.12179 3.25 8.786 3.58579 8.786 4C8.786 4.41421 9.12179 4.75 9.536 4.75V3.25ZM0.250001 4C0.250001 4.41421 0.585788 4.75 1 4.75C1.41421 4.75 1.75 4.41421 1.75 4H0.250001ZM1 2.647H1.75L1.75 2.64609L1 2.647ZM2.643 1V0.249999L2.64209 0.250001L2.643 1ZM7.893 1L7.89391 0.25H7.893V1ZM9.536 2.647L8.786 2.64609V2.647H9.536ZM8.786 4C8.786 4.41421 9.12179 4.75 9.536 4.75C9.95021 4.75 10.286 4.41421 10.286 4H8.786ZM1 3.25C0.585788 3.25 0.250001 3.58579 0.250001 4C0.250001 4.41421 0.585788 4.75 1 4.75V3.25ZM9.536 4.75C9.95022 4.75 10.286 4.41421 10.286 4C10.286 3.58579 9.95022 3.25 9.536 3.25V4.75ZM0.250001 4V14.353H1.75V4H0.250001ZM0.250002 14.3521C0.249229 14.9873 0.500818 15.5968 0.949421 16.0465L2.01137 14.9871C1.84373 14.819 1.74971 14.5913 1.75 14.3539L0.250002 14.3521ZM0.949421 16.0465C1.39803 16.4962 2.0069 16.7492 2.64209 16.75L2.64391 15.25C2.40654 15.2497 2.17901 15.1551 2.01137 14.9871L0.949421 16.0465ZM2.643 16.75H15.357V15.25H2.643V16.75ZM15.3579 16.75C15.9931 16.7492 16.602 16.4962 17.0506 16.0465L15.9886 14.9871C15.821 15.1551 15.5935 15.2497 15.3561 15.25L15.3579 16.75ZM17.0506 16.0465C17.4992 15.5968 17.7508 14.9873 17.75 14.3521L16.25 14.3539C16.2503 14.5913 16.1563 14.819 15.9886 14.9871L17.0506 16.0465ZM17.75 14.353V5.647H16.25V14.353H17.75ZM17.75 5.64791C17.7508 5.01272 17.4992 4.40323 17.0506 3.95354L15.9886 5.01291C16.1563 5.18096 16.2503 5.40872 16.25 5.64609L17.75 5.64791ZM17.0506 3.95354C16.602 3.50384 15.9931 3.25077 15.3579 3.25L15.3561 4.75C15.5935 4.75029 15.821 4.84486 15.9886 5.01291L17.0506 3.95354ZM15.357 3.25H9.536V4.75H15.357V3.25ZM1.75 4V2.647H0.250001V4H1.75ZM1.75 2.64609C1.74971 2.40872 1.84373 2.18096 2.01137 2.01291L0.949421 0.953538C0.500818 1.40323 0.249229 2.01272 0.250002 2.64791L1.75 2.64609ZM2.01137 2.01291C2.17901 1.84486 2.40654 1.75029 2.64391 1.75L2.64209 0.250001C2.0069 0.250772 1.39803 0.503843 0.949421 0.953538L2.01137 2.01291ZM2.643 1.75H7.893V0.25H2.643V1.75ZM7.89209 1.75C8.12946 1.75029 8.35699 1.84486 8.52463 2.01291L9.58658 0.953538C9.13798 0.503843 8.52911 0.250772 7.89391 0.250001L7.89209 1.75ZM8.52463 2.01291C8.69227 2.18096 8.78629 2.40872 8.786 2.64609L10.286 2.64791C10.2868 2.01272 10.0352 1.40323 9.58658 0.953538L8.52463 2.01291ZM8.786 2.647V4H10.286V2.647H8.786ZM1 4.75H9.536V3.25H1V4.75Z" fill="black"/>
<path d="M6.46967 11.4697C6.17678 11.7626 6.17678 12.2374 6.46967 12.5303C6.76256 12.8232 7.23744 12.8232 7.53033 12.5303L6.46967 11.4697ZM9.53033 10.5303C9.82322 10.2374 9.82322 9.76256 9.53033 9.46967C9.23744 9.17678 8.76256 9.17678 8.46967 9.46967L9.53033 10.5303ZM8.46967 9.46967C8.17678 9.76256 8.17678 10.2374 8.46967 10.5303C8.76256 10.8232 9.23744 10.8232 9.53033 10.5303L8.46967 9.46967ZM11.5303 8.53033C11.8232 8.23744 11.8232 7.76256 11.5303 7.46967C11.2374 7.17678 10.7626 7.17678 10.4697 7.46967L11.5303 8.53033ZM9.53033 9.46967C9.23744 9.17678 8.76256 9.17678 8.46967 9.46967C8.17678 9.76256 8.17678 10.2374 8.46967 10.5303L9.53033 9.46967ZM10.4697 12.5303C10.7626 12.8232 11.2374 12.8232 11.5303 12.5303C11.8232 12.2374 11.8232 11.7626 11.5303 11.4697L10.4697 12.5303ZM8.46967 10.5303C8.76256 10.8232 9.23744 10.8232 9.53033 10.5303C9.82322 10.2374 9.82322 9.76256 9.53033 9.46967L8.46967 10.5303ZM7.53033 7.46967C7.23744 7.17678 6.76256 7.17678 6.46967 7.46967C6.17678 7.76256 6.17678 8.23744 6.46967 8.53033L7.53033 7.46967ZM7.53033 12.5303L9.53033 10.5303L8.46967 9.46967L6.46967 11.4697L7.53033 12.5303ZM9.53033 10.5303L11.5303 8.53033L10.4697 7.46967L8.46967 9.46967L9.53033 10.5303ZM8.46967 10.5303L10.4697 12.5303L11.5303 11.4697L9.53033 9.46967L8.46967 10.5303ZM9.53033 9.46967L7.53033 7.46967L6.46967 8.53033L8.46967 10.5303L9.53033 9.46967Z" fill="black"/>
</svg>
