<svg width="16" height="16" viewBox="0 0 16 16" fill="none" xmlns="http://www.w3.org/2000/svg">
<path d="M4.97879 11.6769C5.39073 11.6335 5.68949 11.2644 5.64609 10.8524C5.60269 10.4405 5.23358 10.1418 4.82164 10.1852L4.97879 11.6769ZM1.64622 11.954L1.28386 11.2974C1.26605 11.3072 1.24865 11.3177 1.2317 11.329L1.64622 11.954ZM1.21022 13.376L0.629967 13.8512C0.655201 13.882 0.682848 13.9108 0.712648 13.9372L1.21022 13.376ZM3.78522 14.567L3.95162 13.8357C3.93146 13.8311 3.91112 13.8274 3.89066 13.8245L3.78522 14.567ZM8.00022 15L8.01463 14.2502C8.00508 14.25 7.99553 14.25 7.98598 14.2502L8.00022 15ZM12.2152 14.568L12.1098 13.8255C12.0894 13.8284 12.0691 13.8321 12.049 13.8367L12.2152 14.568ZM14.7902 13.377L15.2878 13.9382C15.3176 13.9118 15.3452 13.883 15.3705 13.8522L14.7902 13.377ZM14.3542 11.955L14.7687 11.33C14.7518 11.3188 14.7345 11.3083 14.7168 11.2985L14.3542 11.955ZM11.179 10.1852C10.7671 10.1417 10.3979 10.4403 10.3544 10.8523C10.3109 11.2642 10.6095 11.6334 11.0214 11.6769L11.179 10.1852ZM8.00022 10.627L7.4839 11.171C7.77331 11.4457 8.22713 11.4457 8.51654 11.171L8.00022 10.627ZM5.03022 7.80803L5.54657 7.26401L5.54036 7.25825L5.03022 7.80803ZM5.03022 2.16803L5.54036 2.71781L5.54111 2.7171L5.03022 2.16803ZM10.9702 2.16803L10.4593 2.7171L10.4601 2.7178L10.9702 2.16803ZM10.9702 7.80803L10.46 7.25821L10.4539 7.26405L10.9702 7.80803ZM8.00022 6.50003L7.98714 7.24994L7.9937 7.25L8.00022 6.50003ZM6.64832 5.10764L7.39826 5.11668L6.64832 5.10764ZM8.03341 3.74827L8.03842 2.99828L8.03341 3.74827ZM9.40022 5.12603L10.1502 5.13356L10.1502 5.127L9.40022 5.12603ZM4.82164 10.1852C3.57995 10.316 2.37703 10.6941 1.28386 11.2974L2.00857 12.6107C2.92637 12.1042 3.9363 11.7867 4.97879 11.6769L4.82164 10.1852ZM1.2317 11.329C0.828906 11.5961 0.460154 11.9562 0.313674 12.4339C0.151278 12.9635 0.311968 13.4629 0.629967 13.8512L1.79047 12.9008C1.74905 12.8503 1.74605 12.8283 1.74807 12.8365C1.75131 12.8497 1.74996 12.8665 1.74776 12.8737C1.74721 12.8754 1.7555 12.8472 1.80405 12.7918C1.85304 12.736 1.93406 12.6631 2.06074 12.5791L1.2317 11.329ZM0.712648 13.9372C1.54567 14.6758 2.57753 15.1531 3.67978 15.3096L3.89066 13.8245C3.07975 13.7093 2.32063 13.3582 1.70779 12.8148L0.712648 13.9372ZM3.61882 15.2983C5.06033 15.6263 6.53636 15.778 8.01446 15.7499L7.98598 14.2502C6.62937 14.2759 5.27465 14.1368 3.95162 13.8357L3.61882 15.2983ZM7.9858 15.7499C9.46385 15.7783 10.9399 15.627 12.3814 15.2994L12.049 13.8367C10.7259 14.1374 9.3712 14.2762 8.01463 14.2502L7.9858 15.7499ZM12.3207 15.3106C13.4229 15.1541 14.4548 14.6768 15.2878 13.9382L14.2926 12.8158C13.6798 13.3592 12.9207 13.7103 12.1098 13.8255L12.3207 15.3106ZM15.3705 13.8522C15.6885 13.4639 15.8492 12.9645 15.6868 12.4349C15.5403 11.9572 15.1715 11.5971 14.7687 11.33L13.9397 12.5801C14.0664 12.6641 14.1474 12.737 14.1964 12.7928C14.2449 12.8482 14.2532 12.8764 14.2527 12.8747C14.2505 12.8675 14.2491 12.8507 14.2524 12.8375C14.2544 12.8293 14.2514 12.8513 14.21 12.9018L15.3705 13.8522ZM14.7168 11.2985C13.6237 10.6949 12.4208 10.3163 11.179 10.1852L11.0214 11.6769C12.064 11.787 13.0739 12.1048 13.9917 12.6116L14.7168 11.2985ZM8.51654 10.083L5.54654 7.26405L4.5139 8.352L7.4839 11.171L8.51654 10.083ZM5.54036 7.25825C4.9088 6.67222 4.5499 5.84959 4.5499 4.98803H3.0499C3.0499 6.26688 3.58262 7.48794 4.52008 8.35781L5.54036 7.25825ZM4.5499 4.98803C4.5499 4.12646 4.9088 3.30383 5.54036 2.7178L4.52008 1.61825C3.58262 2.48811 3.0499 3.70917 3.0499 4.98803H4.5499ZM5.54111 2.7171C6.92696 1.42763 9.07348 1.42763 10.4593 2.7171L11.4811 1.61895C9.51943 -0.206316 6.481 -0.206316 4.51932 1.61895L5.54111 2.7171ZM10.4601 2.7178C11.0916 3.30383 11.4505 4.12646 11.4505 4.98803H12.9505C12.9505 3.70917 12.4178 2.48811 11.4804 1.61825L10.4601 2.7178ZM11.4505 4.98803C11.4505 5.84959 11.0916 6.67222 10.4601 7.25825L11.4804 8.35781C12.4178 7.48794 12.9505 6.26688 12.9505 4.98803H11.4505ZM10.4539 7.26405L7.4839 10.083L8.51654 11.171L11.4865 8.352L10.4539 7.26405ZM8.0133 5.75014C7.66894 5.74413 7.39411 5.46107 7.39826 5.11668L5.89837 5.09859C5.88426 6.2682 6.81762 7.22951 7.98714 7.24991L8.0133 5.75014ZM7.39826 5.11668C7.40242 4.77229 7.68399 4.49595 8.0284 4.49825L8.03842 2.99828C6.86876 2.99047 5.91248 3.92898 5.89837 5.09859L7.39826 5.11668ZM8.0284 4.49825C8.37281 4.50055 8.65067 4.78063 8.65022 5.12505L10.1502 5.127C10.1517 3.95731 9.20809 3.0061 8.03842 2.99828L8.0284 4.49825ZM8.65026 5.11849C8.64672 5.47049 8.35875 5.75312 8.00674 5.75005L7.9937 7.25C9.17331 7.26026 10.1383 6.31316 10.1502 5.13356L8.65026 5.11849Z" fill="black"/>
</svg>
