<svg width="14" height="20" viewBox="0 0 14 20" fill="none" xmlns="http://www.w3.org/2000/svg">
<rect x="1" y="1" width="12" height="18" rx="3" stroke="black" stroke-width="1.5" stroke-linecap="round" stroke-linejoin="round"/>
<path d="M7 16.5C6.86645 16.5 6.74089 16.448 6.64646 16.3536C6.55201 16.2591 6.5 16.1336 6.5 16C6.5 15.9008 6.52914 15.8047 6.58426 15.7222C6.63941 15.6397 6.71699 15.576 6.80865 15.5381C6.86964 15.5128 6.93402 15.5 7.00002 15.5C7.03269 15.5 7.0655 15.5032 7.09755 15.5096C7.19487 15.529 7.28339 15.5763 7.35356 15.6464C7.42372 15.7166 7.47104 15.8051 7.4904 15.9025C7.50976 15.9998 7.49992 16.0997 7.46194 16.1913C7.42397 16.283 7.3603 16.3606 7.27779 16.4157C7.19527 16.4709 7.09923 16.5 7 16.5Z" fill="black"/>
<path d="M7 17C6.73479 17 6.48043 16.8946 6.2929 16.7071C6.10536 16.5196 6 16.2652 6 16C6 15.8022 6.05865 15.6089 6.16854 15.4444C6.27842 15.28 6.4346 15.1518 6.61732 15.0761C6.80005 15.0004 7.00111 14.9806 7.1951 15.0192C7.38908 15.0578 7.56726 15.153 7.70711 15.2929C7.84696 15.4327 7.9422 15.6109 7.98079 15.8049C8.01938 15.9989 7.99957 16.2 7.92388 16.3827C7.8482 16.5654 7.72002 16.7216 7.55557 16.8315C7.39113 16.9414 7.19779 17 7 17Z" fill="black"/>
</svg>
