<svg width="16" height="16" viewBox="0 0 16 16" fill="none" xmlns="http://www.w3.org/2000/svg">
<path fill-rule="evenodd" clip-rule="evenodd" d="M1 8.00019C1.00024 4.66068 3.35944 1.78639 6.63483 1.1351C9.91021 0.483818 13.1895 2.23693 14.4673 5.32231C15.7451 8.40769 14.6655 11.966 11.8887 13.8212C9.11186 15.6764 5.41127 15.3117 3.05 12.9502C1.73728 11.6373 0.999866 9.85675 1 8.00019Z" stroke="black" stroke-width="1.5" stroke-linecap="round" stroke-linejoin="round"/>
<path d="M5.375 7.25024C4.96079 7.25024 4.625 7.58603 4.625 8.00024C4.625 8.41446 4.96079 8.75024 5.375 8.75024V7.25024ZM8 8.75024C8.41421 8.75024 8.75 8.41446 8.75 8.00024C8.75 7.58603 8.41421 7.25024 8 7.25024V8.75024ZM8 7.25024C7.58579 7.25024 7.25 7.58603 7.25 8.00024C7.25 8.41446 7.58579 8.75024 8 8.75024V7.25024ZM10.625 8.75024C11.0392 8.75024 11.375 8.41446 11.375 8.00024C11.375 7.58603 11.0392 7.25024 10.625 7.25024V8.75024ZM8.75 8.00024C8.75 7.58603 8.41421 7.25024 8 7.25024C7.58579 7.25024 7.25 7.58603 7.25 8.00024H8.75ZM7.25 10.6252C7.25 11.0395 7.58579 11.3752 8 11.3752C8.41421 11.3752 8.75 11.0395 8.75 10.6252H7.25ZM7.25 8.00024C7.25 8.41446 7.58579 8.75024 8 8.75024C8.41421 8.75024 8.75 8.41446 8.75 8.00024H7.25ZM8.75 5.37524C8.75 4.96103 8.41421 4.62524 8 4.62524C7.58579 4.62524 7.25 4.96103 7.25 5.37524H8.75ZM5.375 8.75024H8V7.25024H5.375V8.75024ZM8 8.75024H10.625V7.25024H8V8.75024ZM7.25 8.00024V10.6252H8.75V8.00024H7.25ZM8.75 8.00024V5.37524H7.25V8.00024H8.75Z" fill="black"/>
</svg>
