<svg width="16" height="16" viewBox="0 0 16 16" fill="none" xmlns="http://www.w3.org/2000/svg">
<mask id="mask0_1603_23480" style="mask-type:luminance" maskUnits="userSpaceOnUse" x="1" y="1" width="14" height="14">
<path d="M14.6673 1.59668H1.33398V14.4033H14.6673V1.59668Z" fill="white"/>
</mask>
<g mask="url(#mask0_1603_23480)">
<mask id="mask1_1603_23480" style="mask-type:alpha" maskUnits="userSpaceOnUse" x="1" y="1" width="14" height="14">
<path d="M14.6337 7.07C14.5803 7.28934 14.4646 7.48854 14.3003 7.64334L12.1003 9.79C12.0781 9.8134 12.06 9.84047 12.047 9.87C12.0405 9.9008 12.0405 9.93254 12.047 9.96334L12.567 13.0033C12.6104 13.2273 12.5873 13.4591 12.5003 13.67C12.4201 13.8784 12.2782 14.0575 12.0937 14.1833C11.9143 14.3157 11.7023 14.3963 11.4803 14.4167H11.3937C11.1983 14.4171 11.0059 14.369 10.8337 14.2767L8.10033 12.85C8.07193 12.8336 8.03973 12.825 8.00699 12.825C7.97419 12.825 7.94206 12.8336 7.91366 12.85L5.18033 14.2833C4.97529 14.3907 4.74455 14.4391 4.51366 14.4233C4.28943 14.4042 4.07485 14.3235 3.89366 14.19C3.71087 14.0595 3.56966 13.8789 3.48699 13.67C3.40264 13.4585 3.37953 13.2274 3.42032 13.0033L3.94033 9.97C3.95003 9.93967 3.95003 9.907 3.94033 9.87667C3.92996 9.84727 3.91413 9.82014 3.89366 9.79667L1.69366 7.63667C1.53383 7.48214 1.42065 7.2858 1.36699 7.07C1.30215 6.85254 1.30215 6.62086 1.36699 6.40336C1.44028 6.1893 1.57228 6.00014 1.74792 5.8575C1.92357 5.71487 2.13577 5.62448 2.36033 5.59668L5.36033 5.1567C5.39021 5.15594 5.41874 5.14402 5.44033 5.12333C5.46573 5.10386 5.48627 5.07877 5.50033 5.05001L6.90033 2.26335C6.99593 2.06346 7.14619 1.89475 7.33366 1.77669C7.47606 1.68678 7.63586 1.62799 7.80259 1.60425C7.96933 1.58051 8.13919 1.59232 8.30099 1.63892C8.46286 1.68552 8.61299 1.76586 8.74153 1.87464C8.87013 1.9834 8.97419 2.11814 9.04699 2.27002L10.4337 5.04334C10.4504 5.07412 10.4731 5.1013 10.5003 5.12333C10.5246 5.14398 10.5551 5.15577 10.587 5.1567L13.6337 5.59668C13.8551 5.63032 14.0629 5.72499 14.2337 5.87004C14.4012 6.0147 14.5277 6.20095 14.6003 6.41004C14.6713 6.6229 14.6828 6.85107 14.6337 7.07Z" fill="#FFBC1B"/>
</mask>
<g mask="url(#mask1_1603_23480)">
<rect x="8" y="1" width="7" height="14" fill="#DCDCDC"/>
<rect x="1" y="1" width="7" height="14" fill="#FFBC1B"/>
</g>
</g>
</svg>
