<svg width="16" height="16" viewBox="0 0 16 16" fill="none" xmlns="http://www.w3.org/2000/svg">
<mask id="mask0_1163_12970" style="mask-type:luminance" maskUnits="userSpaceOnUse" x="1" y="1" width="14" height="14">
<path d="M14.6663 1.59668H1.33301V14.4033H14.6663V1.59668Z" fill="white"/>
</mask>
<g mask="url(#mask0_1163_12970)">
<path d="M14.6327 7.07045C14.5794 7.28978 14.4636 7.48898 14.2994 7.64378L12.0994 9.79045C12.0771 9.81385 12.059 9.84091 12.046 9.87045C12.0396 9.90125 12.0396 9.93298 12.046 9.96378L12.566 13.0038C12.6094 13.2277 12.5863 13.4595 12.4994 13.6704C12.4191 13.8788 12.2772 14.0579 12.0927 14.1838C11.9134 14.3161 11.7013 14.3968 11.4794 14.4171H11.3927C11.1973 14.4175 11.0049 14.3694 10.8327 14.2771L8.09935 12.8504C8.07095 12.834 8.03875 12.8254 8.00602 12.8254C7.97322 12.8254 7.94108 12.834 7.91268 12.8504L5.17935 14.2838C4.97432 14.3911 4.74357 14.4396 4.51268 14.4238C4.28845 14.4046 4.07388 14.3239 3.89268 14.1904C3.70989 14.0599 3.56868 13.8793 3.48602 13.6704C3.40166 13.4589 3.37856 13.2278 3.41934 13.0038L3.93935 9.97045C3.94905 9.94011 3.94905 9.90745 3.93935 9.87711C3.92898 9.84771 3.91315 9.82058 3.89268 9.79711L1.69268 7.63711C1.53286 7.48258 1.41967 7.28625 1.36602 7.07045C1.30117 6.85298 1.30117 6.6213 1.36602 6.40381C1.4393 6.18974 1.5713 6.00058 1.74694 5.85795C1.92259 5.71531 2.1348 5.62493 2.35935 5.59713L5.35935 5.15714C5.38924 5.15639 5.41776 5.14447 5.43935 5.12377C5.46476 5.10431 5.4853 5.07921 5.49935 5.05045L6.89935 2.26379C6.99495 2.06391 7.14522 1.89519 7.33268 1.77713C7.47508 1.68722 7.63488 1.62843 7.80162 1.60469C7.96835 1.58095 8.13822 1.59276 8.30002 1.63936C8.46188 1.68596 8.61202 1.76631 8.74055 1.87508C8.86915 1.98385 8.97322 2.11859 9.04602 2.27046L10.4327 5.04378C10.4494 5.07457 10.4721 5.10175 10.4994 5.12377C10.5236 5.14442 10.5542 5.15621 10.586 5.15714L13.6327 5.59713C13.8542 5.63077 14.062 5.72543 14.2327 5.87048C14.4002 6.01515 14.5267 6.20139 14.5994 6.41048C14.6703 6.62335 14.6818 6.85151 14.6327 7.07045Z" fill="#FFBC1B"/>
</g>
</svg>
