<svg width="21" height="20" viewBox="0 0 21 20" fill="none" xmlns="http://www.w3.org/2000/svg">
<mask id="mask0_1118_6659" style="mask-type:luminance" maskUnits="userSpaceOnUse" x="2" y="1" width="18" height="18">
<path d="M3 2.49609H18.6667V17.5044H3V2.49609Z" fill="white" stroke="white"/>
</mask>
<g mask="url(#mask0_1118_6659)">
<path d="M19.1251 8.83781C19.0584 9.11198 18.9138 9.36098 18.7084 9.55448L15.9584 12.2378C15.9306 12.2671 15.908 12.3009 15.8918 12.3378C15.8837 12.3763 15.8837 12.416 15.8918 12.4545L16.5418 16.2545C16.596 16.5344 16.5671 16.8241 16.4584 17.0878C16.3581 17.3483 16.1808 17.5721 15.9501 17.7295C15.7259 17.8949 15.4608 17.9957 15.1834 18.0211H15.0751C14.8308 18.0216 14.5903 17.9616 14.3751 17.8461L10.9584 16.0628C10.9229 16.0423 10.8827 16.0316 10.8418 16.0316C10.8008 16.0316 10.7606 16.0423 10.7251 16.0628L7.30842 17.8545C7.05213 17.9886 6.76369 18.0492 6.47508 18.0295C6.19479 18.0056 5.92658 17.9046 5.70008 17.7378C5.47159 17.5746 5.29508 17.3489 5.19175 17.0878C5.08631 16.8234 5.05743 16.5346 5.10841 16.2545L5.75842 12.4628C5.77054 12.4249 5.77054 12.3841 5.75842 12.3461C5.74546 12.3094 5.72567 12.2755 5.70008 12.2461L2.95008 9.54615C2.7503 9.35298 2.60882 9.10756 2.54175 8.83781C2.46069 8.56598 2.46069 8.27638 2.54175 8.00451C2.63336 7.73693 2.79836 7.50048 3.01791 7.32219C3.23747 7.1439 3.50273 7.03091 3.78342 6.99616L7.53342 6.44618C7.57078 6.44524 7.60643 6.43034 7.63342 6.40447C7.66518 6.38014 7.69085 6.34877 7.70842 6.31282L9.45842 2.8295C9.57792 2.57964 9.76575 2.36875 10.0001 2.22117C10.1781 2.10878 10.3778 2.0353 10.5863 2.00562C10.7947 1.97595 11.007 1.99071 11.2093 2.04896C11.4116 2.10721 11.5993 2.20764 11.7599 2.34361C11.9207 2.47956 12.0508 2.64799 12.1418 2.83783L13.8751 6.30448C13.896 6.34296 13.9243 6.37694 13.9584 6.40447C13.9888 6.43028 14.0269 6.44502 14.0668 6.44618L17.8751 6.99616C18.1519 7.03821 18.4117 7.15655 18.6251 7.33786C18.8345 7.51869 18.9926 7.7515 19.0834 8.01286C19.1721 8.27894 19.1865 8.56415 19.1251 8.83781Z" fill="#DCDCDC"/>
</g>
</svg>
