<svg width="16" height="16" viewBox="0 0 16 16" fill="none" xmlns="http://www.w3.org/2000/svg">
<path d="M8.75 1.00019C8.75 0.585974 8.41421 0.250187 8 0.250187C7.58579 0.250187 7.25 0.585974 7.25 1.00019H8.75ZM8 8.00019H7.25C7.25 8.4144 7.58579 8.75019 8 8.75019V8.00019ZM15 8.75019C15.4142 8.75019 15.75 8.4144 15.75 8.00019C15.75 7.58597 15.4142 7.25019 15 7.25019V8.75019ZM1 8.00019L0.25 8.00013L1 8.00019ZM6.63483 1.1351L6.7811 1.8707L6.63483 1.1351ZM14.4673 5.32231L15.1602 5.03534V5.03534L14.4673 5.32231ZM11.8887 13.8212L12.3053 14.4448L11.8887 13.8212ZM3.05 12.9502L3.58036 12.4199H3.58036L3.05 12.9502ZM7.25 1.00019V8.00019H8.75V1.00019H7.25ZM8 8.75019H15V7.25019H8V8.75019ZM1.75 8.00024C1.75022 5.01854 3.85665 2.45221 6.7811 1.8707L6.48856 0.399505C2.86224 1.12057 0.250267 4.30282 0.25 8.00013L1.75 8.00024ZM6.7811 1.8707C9.70554 1.2892 12.6335 2.85447 13.7744 5.60928L15.1602 5.03534C13.7456 1.61938 10.1149 -0.321562 6.48856 0.399505L6.7811 1.8707ZM13.7744 5.60928C14.9153 8.36408 13.9513 11.5412 11.472 13.1976L12.3053 14.4448C15.3796 12.3909 16.5749 8.45129 15.1602 5.03534L13.7744 5.60928ZM11.472 13.1976C8.99273 14.854 5.68863 14.5284 3.58036 12.4199L2.51964 13.4805C5.1339 16.095 9.23099 16.4988 12.3053 14.4448L11.472 13.1976ZM3.58036 12.4199C2.40828 11.2477 1.74988 9.65789 1.75 8.00024L0.25 8.00013C0.249852 10.0556 1.06627 12.027 2.51964 13.4805L3.58036 12.4199Z" fill="black"/>
</svg>
