<svg width="16" height="16" viewBox="0 0 16 16" fill="none" xmlns="http://www.w3.org/2000/svg">
<path fill-rule="evenodd" clip-rule="evenodd" d="M2.80524 11.7137C1.9404 10.8306 1.35381 9.71307 1.11824 8.49969C0.880725 7.28291 1.00269 6.0233 1.46924 4.87469C1.93181 3.73253 2.72153 2.75251 3.73924 2.05769C5.80409 0.647436 8.52239 0.647436 10.5872 2.05769C11.605 2.75251 12.3947 3.73253 12.8572 4.87469C13.3238 6.0233 13.4458 7.28291 13.2082 8.49969C12.9727 9.71307 12.3861 10.8306 11.5212 11.7137C10.3759 12.889 8.80436 13.5519 7.16324 13.5519C5.52213 13.5519 3.95059 12.889 2.80524 11.7137V11.7137Z" stroke="black" stroke-width="1.5" stroke-linecap="round" stroke-linejoin="round"/>
<path d="M7.17024 3.20292C6.75833 3.24656 6.4598 3.61586 6.50344 4.02777C6.54709 4.43968 6.91639 4.73821 7.3283 4.69457L7.17024 3.20292ZM9.02161 5.69213C9.18309 6.07357 9.62321 6.25188 10.0047 6.0904C10.3861 5.92892 10.5644 5.4888 10.4029 5.10736L9.02161 5.69213ZM12.1421 11.0869C11.849 10.7943 11.3741 10.7947 11.0815 11.0879C10.7888 11.381 10.7893 11.8559 11.0824 12.1485L12.1421 11.0869ZM14.4704 15.5305C14.7636 15.8232 15.2384 15.8228 15.5311 15.5296C15.8237 15.2364 15.8233 14.7616 15.5301 14.4689L14.4704 15.5305ZM7.3283 4.69457C8.0508 4.61801 8.73836 5.02306 9.02161 5.69213L10.4029 5.10736C9.86218 3.83005 8.54957 3.05676 7.17024 3.20292L7.3283 4.69457ZM11.0824 12.1485L14.4704 15.5305L15.5301 14.4689L12.1421 11.0869L11.0824 12.1485Z" fill="black"/>
</svg>
