<svg width="16" height="17" viewBox="0 0 16 17" fill="none" xmlns="http://www.w3.org/2000/svg">
<path fill-rule="evenodd" clip-rule="evenodd" d="M13.955 6.8834L2.563 1.1434C2.26535 0.969284 1.90109 0.952743 1.58888 1.09916C1.27667 1.24558 1.05647 1.53621 1 1.8764C1.0039 1.98942 1.03114 2.10041 1.08 2.2024L3.249 7.4424C3.35786 7.79034 3.41711 8.1519 3.425 8.5164C3.41714 8.88089 3.35789 9.24246 3.249 9.5904L1.08 14.8304C1.03114 14.9324 1.0039 15.0434 1 15.1564C1.05687 15.4961 1.27703 15.7862 1.5889 15.9323C1.90078 16.0785 2.26456 16.062 2.562 15.8884L13.955 10.1484C14.5903 9.8533 14.9967 9.21641 14.9967 8.5159C14.9967 7.81538 14.5903 7.17849 13.955 6.8834V6.8834Z" stroke="black" stroke-width="1.5" stroke-linecap="round" stroke-linejoin="round"/>
</svg>
