<svg width="16" height="17" viewBox="0 0 16 17" fill="none" xmlns="http://www.w3.org/2000/svg">
<path d="M8 2.25C8.41421 2.25 8.75 1.91421 8.75 1.5C8.75 1.08579 8.41421 0.75 8 0.75V2.25ZM15.75 8.5C15.75 8.08579 15.4142 7.75 15 7.75C14.5858 7.75 14.25 8.08579 14.25 8.5H15.75ZM15 2.25C15.4142 2.25 15.75 1.91421 15.75 1.5C15.75 1.08579 15.4142 0.75 15 0.75V2.25ZM10.912 0.75C10.4978 0.75 10.162 1.08579 10.162 1.5C10.162 1.91421 10.4978 2.25 10.912 2.25V0.75ZM15.75 1.5C15.75 1.08579 15.4142 0.75 15 0.75C14.5858 0.75 14.25 1.08579 14.25 1.5H15.75ZM14.25 5.641C14.25 6.05521 14.5858 6.391 15 6.391C15.4142 6.391 15.75 6.05521 15.75 5.641H14.25ZM15.5303 2.03033C15.8232 1.73744 15.8232 1.26256 15.5303 0.96967C15.2374 0.676777 14.7626 0.676777 14.4697 0.96967L15.5303 2.03033ZM7.46967 7.96967C7.17678 8.26256 7.17678 8.73744 7.46967 9.03033C7.76256 9.32322 8.23744 9.32322 8.53033 9.03033L7.46967 7.96967ZM8 0.75H5V2.25H8V0.75ZM5 0.75C2.37665 0.75 0.25 2.87665 0.25 5.5H1.75C1.75 3.70507 3.20507 2.25 5 2.25V0.75ZM0.25 5.5V11.5H1.75V5.5H0.25ZM0.25 11.5C0.25 14.1234 2.37665 16.25 5 16.25V14.75C3.20507 14.75 1.75 13.2949 1.75 11.5H0.25ZM5 16.25H11V14.75H5V16.25ZM11 16.25C13.6234 16.25 15.75 14.1234 15.75 11.5H14.25C14.25 13.2949 12.7949 14.75 11 14.75V16.25ZM15.75 11.5V8.5H14.25V11.5H15.75ZM15 0.75H10.912V2.25H15V0.75ZM14.25 1.5V5.641H15.75V1.5H14.25ZM14.4697 0.96967L7.46967 7.96967L8.53033 9.03033L15.5303 2.03033L14.4697 0.96967Z" fill="black"/>
</svg>
