<svg width="18" height="16" viewBox="0 0 18 16" fill="none" xmlns="http://www.w3.org/2000/svg">
<path d="M3.93901 11.7528C4.3529 11.7362 4.67498 11.3873 4.6584 10.9734C4.64182 10.5595 4.29287 10.2374 3.87898 10.254L3.93901 11.7528ZM1 8.33639L0.250369 8.31287C0.249757 8.33238 0.249907 8.35191 0.250818 8.37141L1 8.33639ZM3.183 5.75339L3.33114 6.48861C3.68121 6.41808 3.933 6.1105 3.933 5.75339H3.183ZM3.183 5.66939L2.43383 5.63409C2.43328 5.64585 2.433 5.65762 2.433 5.66939H3.183ZM6.091 3.00339L6.06124 3.7528C6.07163 3.75321 6.08203 3.75341 6.09243 3.75339L6.091 3.00339ZM7.158 3.18839L6.90417 3.89413C7.25859 4.02161 7.65259 3.86644 7.82491 3.53151L7.158 3.18839ZM10.818 1.00339L10.8036 1.75325C10.8188 1.75354 10.834 1.75337 10.8492 1.75274L10.818 1.00339ZM14.818 4.67039L15.568 4.66973C15.568 4.65865 15.5677 4.64757 15.5672 4.63651L14.818 4.67039ZM14.652 5.72039L13.9388 5.4884C13.8703 5.69889 13.8983 5.92887 14.0153 6.11677C14.1323 6.30468 14.3263 6.43131 14.5454 6.46277L14.652 5.72039ZM17 8.33639L17.7492 8.37141C17.7501 8.35106 17.7503 8.33068 17.7495 8.31033L17 8.33639ZM14.121 10.254C13.7071 10.2374 13.3582 10.5595 13.3416 10.9734C13.325 11.3873 13.6471 11.7362 14.061 11.7528L14.121 10.254ZM9.53033 13.5337C9.82322 13.2409 9.82322 12.766 9.53033 12.4731C9.23744 12.1802 8.76256 12.1802 8.46967 12.4731L9.53033 13.5337ZM6.46967 14.4731C6.17678 14.766 6.17678 15.2409 6.46967 15.5337C6.76256 15.8266 7.23744 15.8266 7.53033 15.5337L6.46967 14.4731ZM6.25 15.0034C6.25 15.4176 6.58579 15.7534 7 15.7534C7.41421 15.7534 7.75 15.4176 7.75 15.0034H6.25ZM7.75 7.00342C7.75 6.5892 7.41421 6.25342 7 6.25342C6.58579 6.25342 6.25 6.5892 6.25 7.00342H7.75ZM6.46967 15.5337C6.76256 15.8266 7.23744 15.8266 7.53033 15.5337C7.82322 15.2409 7.82322 14.766 7.53033 14.4731L6.46967 15.5337ZM5.53033 12.4731C5.23744 12.1802 4.76256 12.1802 4.46967 12.4731C4.17678 12.766 4.17678 13.2409 4.46967 13.5337L5.53033 12.4731ZM8.46967 8.47309C8.17678 8.76598 8.17678 9.24086 8.46967 9.53375C8.76256 9.82664 9.23744 9.82664 9.53033 9.53375L8.46967 8.47309ZM11.5303 7.53375C11.8232 7.24085 11.8232 6.76598 11.5303 6.47309C11.2374 6.18019 10.7626 6.18019 10.4697 6.47309L11.5303 7.53375ZM11.75 7.00342C11.75 6.5892 11.4142 6.25342 11 6.25342C10.5858 6.25342 10.25 6.5892 10.25 7.00342H11.75ZM10.25 15.0034C10.25 15.4176 10.5858 15.7534 11 15.7534C11.4142 15.7534 11.75 15.4176 11.75 15.0034H10.25ZM11.5303 6.47309C11.2374 6.18019 10.7626 6.18019 10.4697 6.47309C10.1768 6.76598 10.1768 7.24085 10.4697 7.53375L11.5303 6.47309ZM12.4697 9.53375C12.7626 9.82664 13.2374 9.82664 13.5303 9.53375C13.8232 9.24086 13.8232 8.76598 13.5303 8.47309L12.4697 9.53375ZM3.87898 10.254C2.75305 10.2991 1.8018 9.42697 1.74918 8.30137L0.250818 8.37141C0.341944 10.3206 1.98923 11.8309 3.93901 11.7528L3.87898 10.254ZM1.74963 8.35991C1.77835 7.4446 2.43342 6.6695 3.33114 6.48861L3.03486 5.01817C1.45428 5.33664 0.300937 6.70132 0.250369 8.31287L1.74963 8.35991ZM3.933 5.75339C3.933 5.75334 3.933 5.75328 3.933 5.75323C3.933 5.75317 3.933 5.75312 3.933 5.75306C3.933 5.75301 3.933 5.75295 3.933 5.7529C3.933 5.75284 3.933 5.75279 3.933 5.75273C3.933 5.75268 3.933 5.75262 3.933 5.75257C3.933 5.75252 3.933 5.75246 3.933 5.75241C3.933 5.75235 3.933 5.7523 3.933 5.75224C3.933 5.75219 3.933 5.75213 3.933 5.75208C3.933 5.75202 3.933 5.75197 3.933 5.75191C3.933 5.75186 3.933 5.7518 3.933 5.75175C3.933 5.7517 3.933 5.75164 3.933 5.75159C3.933 5.75153 3.933 5.75148 3.933 5.75142C3.933 5.75137 3.933 5.75131 3.933 5.75126C3.933 5.7512 3.933 5.75115 3.933 5.75109C3.933 5.75104 3.933 5.75098 3.933 5.75093C3.933 5.75087 3.933 5.75082 3.933 5.75077C3.933 5.75071 3.933 5.75066 3.933 5.7506C3.933 5.75055 3.933 5.75049 3.933 5.75044C3.933 5.75038 3.933 5.75033 3.933 5.75027C3.933 5.75022 3.933 5.75016 3.933 5.75011C3.933 5.75005 3.933 5.75 3.933 5.74995C3.933 5.74989 3.933 5.74984 3.933 5.74978C3.933 5.74973 3.933 5.74967 3.933 5.74962C3.933 5.74956 3.933 5.74951 3.933 5.74945C3.933 5.7494 3.933 5.74934 3.933 5.74929C3.933 5.74923 3.933 5.74918 3.933 5.74912C3.933 5.74907 3.933 5.74902 3.933 5.74896C3.933 5.74891 3.933 5.74885 3.933 5.7488C3.933 5.74874 3.933 5.74869 3.933 5.74863C3.933 5.74858 3.933 5.74852 3.933 5.74847C3.933 5.74841 3.933 5.74836 3.933 5.7483C3.933 5.74825 3.933 5.7482 3.933 5.74814C3.933 5.74809 3.933 5.74803 3.933 5.74798C3.933 5.74792 3.933 5.74787 3.933 5.74781C3.933 5.74776 3.933 5.7477 3.933 5.74765C3.933 5.74759 3.933 5.74754 3.933 5.74748C3.933 5.74743 3.933 5.74737 3.933 5.74732C3.933 5.74727 3.933 5.74721 3.933 5.74716C3.933 5.7471 3.933 5.74705 3.933 5.74699C3.933 5.74694 3.933 5.74688 3.933 5.74683C3.933 5.74677 3.933 5.74672 3.933 5.74666C3.933 5.74661 3.933 5.74655 3.933 5.7465C3.933 5.74645 3.933 5.74639 3.933 5.74634C3.933 5.74628 3.933 5.74623 3.933 5.74617C3.933 5.74612 3.933 5.74606 3.933 5.74601C3.933 5.74595 3.933 5.7459 3.933 5.74584C3.933 5.74579 3.933 5.74573 3.933 5.74568C3.933 5.74562 3.933 5.74557 3.933 5.74552C3.933 5.74546 3.933 5.74541 3.933 5.74535C3.933 5.7453 3.933 5.74524 3.933 5.74519C3.933 5.74513 3.933 5.74508 3.933 5.74502C3.933 5.74497 3.933 5.74491 3.933 5.74486C3.933 5.7448 3.933 5.74475 3.933 5.7447C3.933 5.74464 3.933 5.74459 3.933 5.74453C3.933 5.74448 3.933 5.74442 3.933 5.74437C3.933 5.74431 3.933 5.74426 3.933 5.7442C3.933 5.74415 3.933 5.74409 3.933 5.74404C3.933 5.74398 3.933 5.74393 3.933 5.74387C3.933 5.74382 3.933 5.74377 3.933 5.74371C3.933 5.74366 3.933 5.7436 3.933 5.74355C3.933 5.74349 3.933 5.74344 3.933 5.74338C3.933 5.74333 3.933 5.74327 3.933 5.74322C3.933 5.74316 3.933 5.74311 3.933 5.74305C3.933 5.743 3.933 5.74294 3.933 5.74289C3.933 5.74284 3.933 5.74278 3.933 5.74273C3.933 5.74267 3.933 5.74262 3.933 5.74256C3.933 5.74251 3.933 5.74245 3.933 5.7424C3.933 5.74234 3.933 5.74229 3.933 5.74223C3.933 5.74218 3.933 5.74212 3.933 5.74207C3.933 5.74202 3.933 5.74196 3.933 5.74191C3.933 5.74185 3.933 5.7418 3.933 5.74174C3.933 5.74169 3.933 5.74163 3.933 5.74158C3.933 5.74152 3.933 5.74147 3.933 5.74141C3.933 5.74136 3.933 5.7413 3.933 5.74125C3.933 5.74119 3.933 5.74114 3.933 5.74109C3.933 5.74103 3.933 5.74098 3.933 5.74092C3.933 5.74087 3.933 5.74081 3.933 5.74076C3.933 5.7407 3.933 5.74065 3.933 5.74059C3.933 5.74054 3.933 5.74048 3.933 5.74043C3.933 5.74037 3.933 5.74032 3.933 5.74027C3.933 5.74021 3.933 5.74016 3.933 5.7401C3.933 5.74005 3.933 5.73999 3.933 5.73994C3.933 5.73988 3.933 5.73983 3.933 5.73977C3.933 5.73972 3.933 5.73966 3.933 5.73961C3.933 5.73955 3.933 5.7395 3.933 5.73944C3.933 5.73939 3.933 5.73934 3.933 5.73928C3.933 5.73923 3.933 5.73917 3.933 5.73912C3.933 5.73906 3.933 5.73901 3.933 5.73895C3.933 5.7389 3.933 5.73884 3.933 5.73879C3.933 5.73873 3.933 5.73868 3.933 5.73862C3.933 5.73857 3.933 5.73852 3.933 5.73846C3.933 5.73841 3.933 5.73835 3.933 5.7383C3.933 5.73824 3.933 5.73819 3.933 5.73813C3.933 5.73808 3.933 5.73802 3.933 5.73797C3.933 5.73791 3.933 5.73786 3.933 5.7378C3.933 5.73775 3.933 5.73769 3.933 5.73764C3.933 5.73759 3.933 5.73753 3.933 5.73748C3.933 5.73742 3.933 5.73737 3.933 5.73731C3.933 5.73726 3.933 5.7372 3.933 5.73715C3.933 5.73709 3.933 5.73704 3.933 5.73698C3.933 5.73693 3.933 5.73687 3.933 5.73682C3.933 5.73677 3.933 5.73671 3.933 5.73666C3.933 5.7366 3.933 5.73655 3.933 5.73649C3.933 5.73644 3.933 5.73638 3.933 5.73633C3.933 5.73627 3.933 5.73622 3.933 5.73616C3.933 5.73611 3.933 5.73605 3.933 5.736C3.933 5.73594 3.933 5.73589 3.933 5.73584C3.933 5.73578 3.933 5.73573 3.933 5.73567C3.933 5.73562 3.933 5.73556 3.933 5.73551C3.933 5.73545 3.933 5.7354 3.933 5.73534C3.933 5.73529 3.933 5.73523 3.933 5.73518C3.933 5.73512 3.933 5.73507 3.933 5.73502C3.933 5.73496 3.933 5.73491 3.933 5.73485C3.933 5.7348 3.933 5.73474 3.933 5.73469C3.933 5.73463 3.933 5.73458 3.933 5.73452C3.933 5.73447 3.933 5.73441 3.933 5.73436C3.933 5.7343 3.933 5.73425 3.933 5.73419C3.933 5.73414 3.933 5.73409 3.933 5.73403C3.933 5.73398 3.933 5.73392 3.933 5.73387C3.933 5.73381 3.933 5.73376 3.933 5.7337C3.933 5.73365 3.933 5.73359 3.933 5.73354C3.933 5.73348 3.933 5.73343 3.933 5.73337C3.933 5.73332 3.933 5.73327 3.933 5.73321C3.933 5.73316 3.933 5.7331 3.933 5.73305C3.933 5.73299 3.933 5.73294 3.933 5.73288C3.933 5.73283 3.933 5.73277 3.933 5.73272C3.933 5.73266 3.933 5.73261 3.933 5.73255C3.933 5.7325 3.933 5.73244 3.933 5.73239C3.933 5.73234 3.933 5.73228 3.933 5.73223C3.933 5.73217 3.933 5.73212 3.933 5.73206C3.933 5.73201 3.933 5.73195 3.933 5.7319C3.933 5.73184 3.933 5.73179 3.933 5.73173C3.933 5.73168 3.933 5.73162 3.933 5.73157C3.933 5.73152 3.933 5.73146 3.933 5.73141C3.933 5.73135 3.933 5.7313 3.933 5.73124C3.933 5.73119 3.933 5.73113 3.933 5.73108C3.933 5.73102 3.933 5.73097 3.933 5.73091C3.933 5.73086 3.933 5.7308 3.933 5.73075C3.933 5.73069 3.933 5.73064 3.933 5.73059C3.933 5.73053 3.933 5.73048 3.933 5.73042C3.933 5.73037 3.933 5.73031 3.933 5.73026C3.933 5.7302 3.933 5.73015 3.933 5.73009C3.933 5.73004 3.933 5.72998 3.933 5.72993C3.933 5.72987 3.933 5.72982 3.933 5.72977C3.933 5.72971 3.933 5.72966 3.933 5.7296C3.933 5.72955 3.933 5.72949 3.933 5.72944C3.933 5.72938 3.933 5.72933 3.933 5.72927C3.933 5.72922 3.933 5.72916 3.933 5.72911C3.933 5.72905 3.933 5.729 3.933 5.72894C3.933 5.72889 3.933 5.72884 3.933 5.72878C3.933 5.72873 3.933 5.72867 3.933 5.72862C3.933 5.72856 3.933 5.72851 3.933 5.72845C3.933 5.7284 3.933 5.72834 3.933 5.72829C3.933 5.72823 3.933 5.72818 3.933 5.72812C3.933 5.72807 3.933 5.72802 3.933 5.72796C3.933 5.72791 3.933 5.72785 3.933 5.7278C3.933 5.72774 3.933 5.72769 3.933 5.72763C3.933 5.72758 3.933 5.72752 3.933 5.72747C3.933 5.72741 3.933 5.72736 3.933 5.7273C3.933 5.72725 3.933 5.72719 3.933 5.72714C3.933 5.72709 3.933 5.72703 3.933 5.72698C3.933 5.72692 3.933 5.72687 3.933 5.72681C3.933 5.72676 3.933 5.7267 3.933 5.72665C3.933 5.72659 3.933 5.72654 3.933 5.72648C3.933 5.72643 3.933 5.72637 3.933 5.72632C3.933 5.72627 3.933 5.72621 3.933 5.72616C3.933 5.7261 3.933 5.72605 3.933 5.72599C3.933 5.72594 3.933 5.72588 3.933 5.72583C3.933 5.72577 3.933 5.72572 3.933 5.72566C3.933 5.72561 3.933 5.72555 3.933 5.7255C3.933 5.72544 3.933 5.72539 3.933 5.72534C3.933 5.72528 3.933 5.72523 3.933 5.72517C3.933 5.72512 3.933 5.72506 3.933 5.72501C3.933 5.72495 3.933 5.7249 3.933 5.72484C3.933 5.72479 3.933 5.72473 3.933 5.72468C3.933 5.72462 3.933 5.72457 3.933 5.72452C3.933 5.72446 3.933 5.72441 3.933 5.72435C3.933 5.7243 3.933 5.72424 3.933 5.72419C3.933 5.72413 3.933 5.72408 3.933 5.72402C3.933 5.72397 3.933 5.72391 3.933 5.72386C3.933 5.7238 3.933 5.72375 3.933 5.72369C3.933 5.72364 3.933 5.72359 3.933 5.72353C3.933 5.72348 3.933 5.72342 3.933 5.72337C3.933 5.72331 3.933 5.72326 3.933 5.7232C3.933 5.72315 3.933 5.72309 3.933 5.72304C3.933 5.72298 3.933 5.72293 3.933 5.72287C3.933 5.72282 3.933 5.72277 3.933 5.72271C3.933 5.72266 3.933 5.7226 3.933 5.72255C3.933 5.72249 3.933 5.72244 3.933 5.72238C3.933 5.72233 3.933 5.72227 3.933 5.72222C3.933 5.72216 3.933 5.72211 3.933 5.72205C3.933 5.722 3.933 5.72194 3.933 5.72189C3.933 5.72184 3.933 5.72178 3.933 5.72173C3.933 5.72167 3.933 5.72162 3.933 5.72156C3.933 5.72151 3.933 5.72145 3.933 5.7214C3.933 5.72134 3.933 5.72129 3.933 5.72123C3.933 5.72118 3.933 5.72112 3.933 5.72107C3.933 5.72102 3.933 5.72096 3.933 5.72091C3.933 5.72085 3.933 5.7208 3.933 5.72074C3.933 5.72069 3.933 5.72063 3.933 5.72058C3.933 5.72052 3.933 5.72047 3.933 5.72041C3.933 5.72036 3.933 5.7203 3.933 5.72025C3.933 5.72019 3.933 5.72014 3.933 5.72009C3.933 5.72003 3.933 5.71998 3.933 5.71992C3.933 5.71987 3.933 5.71981 3.933 5.71976C3.933 5.7197 3.933 5.71965 3.933 5.71959C3.933 5.71954 3.933 5.71948 3.933 5.71943C3.933 5.71937 3.933 5.71932 3.933 5.71926C3.933 5.71921 3.933 5.71916 3.933 5.7191C3.933 5.71905 3.933 5.71899 3.933 5.71894C3.933 5.71888 3.933 5.71883 3.933 5.71877C3.933 5.71872 3.933 5.71866 3.933 5.71861C3.933 5.71855 3.933 5.7185 3.933 5.71844C3.933 5.71839 3.933 5.71834 3.933 5.71828C3.933 5.71823 3.933 5.71817 3.933 5.71812C3.933 5.71806 3.933 5.71801 3.933 5.71795C3.933 5.7179 3.933 5.71784 3.933 5.71779C3.933 5.71773 3.933 5.71768 3.933 5.71762C3.933 5.71757 3.933 5.71751 3.933 5.71746C3.933 5.71741 3.933 5.71735 3.933 5.7173C3.933 5.71724 3.933 5.71719 3.933 5.71713C3.933 5.71708 3.933 5.71702 3.933 5.71697C3.933 5.71691 3.933 5.71686 3.933 5.7168C3.933 5.71675 3.933 5.71669 3.933 5.71664C3.933 5.71659 3.933 5.71653 3.933 5.71648C3.933 5.71642 3.933 5.71637 3.933 5.71631C3.933 5.71626 3.933 5.7162 3.933 5.71615C3.933 5.71609 3.933 5.71604 3.933 5.71598C3.933 5.71593 3.933 5.71587 3.933 5.71582C3.933 5.71576 3.933 5.71571 3.933 5.71566C3.933 5.7156 3.933 5.71555 3.933 5.71549C3.933 5.71544 3.933 5.71538 3.933 5.71533C3.933 5.71527 3.933 5.71522 3.933 5.71516C3.933 5.71511 3.933 5.71505 3.933 5.715C3.933 5.71494 3.933 5.71489 3.933 5.71484C3.933 5.71478 3.933 5.71473 3.933 5.71467C3.933 5.71462 3.933 5.71456 3.933 5.71451C3.933 5.71445 3.933 5.7144 3.933 5.71434C3.933 5.71429 3.933 5.71423 3.933 5.71418C3.933 5.71412 3.933 5.71407 3.933 5.71402C3.933 5.71396 3.933 5.71391 3.933 5.71385C3.933 5.7138 3.933 5.71374 3.933 5.71369C3.933 5.71363 3.933 5.71358 3.933 5.71352C3.933 5.71347 3.933 5.71341 3.933 5.71336C3.933 5.7133 3.933 5.71325 3.933 5.71319C3.933 5.71314 3.933 5.71309 3.933 5.71303C3.933 5.71298 3.933 5.71292 3.933 5.71287C3.933 5.71281 3.933 5.71276 3.933 5.7127C3.933 5.71265 3.933 5.71259 3.933 5.71254C3.933 5.71248 3.933 5.71243 3.933 5.71237C3.933 5.71232 3.933 5.71227 3.933 5.71221C3.933 5.71216 3.933 5.7121 3.933 5.71205C3.933 5.71199 3.933 5.71194 3.933 5.71188C3.933 5.71183 3.933 5.71177 3.933 5.71172C3.933 5.71166 3.933 5.71161 3.933 5.71155C3.933 5.7115 3.933 5.71144 3.933 5.71139C3.933 5.71134 3.933 5.71128 3.933 5.71123C3.933 5.71117 3.933 5.71112 3.933 5.71106C3.933 5.71101 3.933 5.71095 3.933 5.7109C3.933 5.71084 3.933 5.71079 3.933 5.71073C3.933 5.71068 3.933 5.71062 3.933 5.71057C3.933 5.71052 3.933 5.71046 3.933 5.71041C3.933 5.71035 3.933 5.7103 3.933 5.71024C3.933 5.71019 3.933 5.71013 3.933 5.71008C3.933 5.71002 3.933 5.70997 3.933 5.70991C3.933 5.70986 3.933 5.7098 3.933 5.70975C3.933 5.70969 3.933 5.70964 3.933 5.70959C3.933 5.70953 3.933 5.70948 3.933 5.70942C3.933 5.70937 3.933 5.70931 3.933 5.70926C3.933 5.7092 3.933 5.70915 3.933 5.70909C3.933 5.70904 3.933 5.70898 3.933 5.70893C3.933 5.70887 3.933 5.70882 3.933 5.70877C3.933 5.70871 3.933 5.70866 3.933 5.7086C3.933 5.70855 3.933 5.70849 3.933 5.70844C3.933 5.70838 3.933 5.70833 3.933 5.70827C3.933 5.70822 3.933 5.70816 3.933 5.70811C3.933 5.70805 3.933 5.708 3.933 5.70794C3.933 5.70789 3.933 5.70784 3.933 5.70778C3.933 5.70773 3.933 5.70767 3.933 5.70762C3.933 5.70756 3.933 5.70751 3.933 5.70745C3.933 5.7074 3.933 5.70734 3.933 5.70729C3.933 5.70723 3.933 5.70718 3.933 5.70712C3.933 5.70707 3.933 5.70702 3.933 5.70696C3.933 5.70691 3.933 5.70685 3.933 5.7068C3.933 5.70674 3.933 5.70669 3.933 5.70663C3.933 5.70658 3.933 5.70652 3.933 5.70647C3.933 5.70641 3.933 5.70636 3.933 5.7063C3.933 5.70625 3.933 5.70619 3.933 5.70614C3.933 5.70609 3.933 5.70603 3.933 5.70598C3.933 5.70592 3.933 5.70587 3.933 5.70581C3.933 5.70576 3.933 5.7057 3.933 5.70565C3.933 5.70559 3.933 5.70554 3.933 5.70548C3.933 5.70543 3.933 5.70537 3.933 5.70532C3.933 5.70527 3.933 5.70521 3.933 5.70516C3.933 5.7051 3.933 5.70505 3.933 5.70499C3.933 5.70494 3.933 5.70488 3.933 5.70483C3.933 5.70477 3.933 5.70472 3.933 5.70466C3.933 5.70461 3.933 5.70455 3.933 5.7045C3.933 5.70444 3.933 5.70439 3.933 5.70434C3.933 5.70428 3.933 5.70423 3.933 5.70417C3.933 5.70412 3.933 5.70406 3.933 5.70401C3.933 5.70395 3.933 5.7039 3.933 5.70384C3.933 5.70379 3.933 5.70373 3.933 5.70368C3.933 5.70362 3.933 5.70357 3.933 5.70352C3.933 5.70346 3.933 5.70341 3.933 5.70335C3.933 5.7033 3.933 5.70324 3.933 5.70319C3.933 5.70313 3.933 5.70308 3.933 5.70302C3.933 5.70297 3.933 5.70291 3.933 5.70286C3.933 5.7028 3.933 5.70275 3.933 5.70269C3.933 5.70264 3.933 5.70259 3.933 5.70253C3.933 5.70248 3.933 5.70242 3.933 5.70237C3.933 5.70231 3.933 5.70226 3.933 5.7022C3.933 5.70215 3.933 5.70209 3.933 5.70204C3.933 5.70198 3.933 5.70193 3.933 5.70187C3.933 5.70182 3.933 5.70177 3.933 5.70171C3.933 5.70166 3.933 5.7016 3.933 5.70155C3.933 5.70149 3.933 5.70144 3.933 5.70138C3.933 5.70133 3.933 5.70127 3.933 5.70122C3.933 5.70116 3.933 5.70111 3.933 5.70105C3.933 5.701 3.933 5.70094 3.933 5.70089C3.933 5.70084 3.933 5.70078 3.933 5.70073C3.933 5.70067 3.933 5.70062 3.933 5.70056C3.933 5.70051 3.933 5.70045 3.933 5.7004C3.933 5.70034 3.933 5.70029 3.933 5.70023C3.933 5.70018 3.933 5.70012 3.933 5.70007C3.933 5.70002 3.933 5.69996 3.933 5.69991C3.933 5.69985 3.933 5.6998 3.933 5.69974C3.933 5.69969 3.933 5.69963 3.933 5.69958C3.933 5.69952 3.933 5.69947 3.933 5.69941C3.933 5.69936 3.933 5.6993 3.933 5.69925C3.933 5.69919 3.933 5.69914 3.933 5.69909C3.933 5.69903 3.933 5.69898 3.933 5.69892C3.933 5.69887 3.933 5.69881 3.933 5.69876C3.933 5.6987 3.933 5.69865 3.933 5.69859C3.933 5.69854 3.933 5.69848 3.933 5.69843C3.933 5.69837 3.933 5.69832 3.933 5.69827C3.933 5.69821 3.933 5.69816 3.933 5.6981C3.933 5.69805 3.933 5.69799 3.933 5.69794C3.933 5.69788 3.933 5.69783 3.933 5.69777C3.933 5.69772 3.933 5.69766 3.933 5.69761C3.933 5.69755 3.933 5.6975 3.933 5.69744C3.933 5.69739 3.933 5.69734 3.933 5.69728C3.933 5.69723 3.933 5.69717 3.933 5.69712C3.933 5.69706 3.933 5.69701 3.933 5.69695C3.933 5.6969 3.933 5.69684 3.933 5.69679C3.933 5.69673 3.933 5.69668 3.933 5.69662C3.933 5.69657 3.933 5.69652 3.933 5.69646C3.933 5.69641 3.933 5.69635 3.933 5.6963C3.933 5.69624 3.933 5.69619 3.933 5.69613C3.933 5.69608 3.933 5.69602 3.933 5.69597C3.933 5.69591 3.933 5.69586 3.933 5.6958C3.933 5.69575 3.933 5.69569 3.933 5.69564C3.933 5.69559 3.933 5.69553 3.933 5.69548C3.933 5.69542 3.933 5.69537 3.933 5.69531C3.933 5.69526 3.933 5.6952 3.933 5.69515C3.933 5.69509 3.933 5.69504 3.933 5.69498C3.933 5.69493 3.933 5.69487 3.933 5.69482C3.933 5.69477 3.933 5.69471 3.933 5.69466C3.933 5.6946 3.933 5.69455 3.933 5.69449C3.933 5.69444 3.933 5.69438 3.933 5.69433C3.933 5.69427 3.933 5.69422 3.933 5.69416C3.933 5.69411 3.933 5.69405 3.933 5.694C3.933 5.69394 3.933 5.69389 3.933 5.69384C3.933 5.69378 3.933 5.69373 3.933 5.69367C3.933 5.69362 3.933 5.69356 3.933 5.69351C3.933 5.69345 3.933 5.6934 3.933 5.69334C3.933 5.69329 3.933 5.69323 3.933 5.69318C3.933 5.69312 3.933 5.69307 3.933 5.69302C3.933 5.69296 3.933 5.69291 3.933 5.69285C3.933 5.6928 3.933 5.69274 3.933 5.69269C3.933 5.69263 3.933 5.69258 3.933 5.69252C3.933 5.69247 3.933 5.69241 3.933 5.69236C3.933 5.6923 3.933 5.69225 3.933 5.69219C3.933 5.69214 3.933 5.69209 3.933 5.69203C3.933 5.69198 3.933 5.69192 3.933 5.69187C3.933 5.69181 3.933 5.69176 3.933 5.6917C3.933 5.69165 3.933 5.69159 3.933 5.69154C3.933 5.69148 3.933 5.69143 3.933 5.69137C3.933 5.69132 3.933 5.69127 3.933 5.69121C3.933 5.69116 3.933 5.6911 3.933 5.69105C3.933 5.69099 3.933 5.69094 3.933 5.69088C3.933 5.69083 3.933 5.69077 3.933 5.69072C3.933 5.69066 3.933 5.69061 3.933 5.69055C3.933 5.6905 3.933 5.69044 3.933 5.69039C3.933 5.69034 3.933 5.69028 3.933 5.69023C3.933 5.69017 3.933 5.69012 3.933 5.69006C3.933 5.69001 3.933 5.68995 3.933 5.6899C3.933 5.68984 3.933 5.68979 3.933 5.68973C3.933 5.68968 3.933 5.68962 3.933 5.68957C3.933 5.68952 3.933 5.68946 3.933 5.68941C3.933 5.68935 3.933 5.6893 3.933 5.68924C3.933 5.68919 3.933 5.68913 3.933 5.68908C3.933 5.68902 3.933 5.68897 3.933 5.68891C3.933 5.68886 3.933 5.6888 3.933 5.68875C3.933 5.68869 3.933 5.68864 3.933 5.68859C3.933 5.68853 3.933 5.68848 3.933 5.68842C3.933 5.68837 3.933 5.68831 3.933 5.68826C3.933 5.6882 3.933 5.68815 3.933 5.68809C3.933 5.68804 3.933 5.68798 3.933 5.68793C3.933 5.68787 3.933 5.68782 3.933 5.68777C3.933 5.68771 3.933 5.68766 3.933 5.6876C3.933 5.68755 3.933 5.68749 3.933 5.68744C3.933 5.68738 3.933 5.68733 3.933 5.68727C3.933 5.68722 3.933 5.68716 3.933 5.68711C3.933 5.68705 3.933 5.687 3.933 5.68694C3.933 5.68689 3.933 5.68684 3.933 5.68678C3.933 5.68673 3.933 5.68667 3.933 5.68662C3.933 5.68656 3.933 5.68651 3.933 5.68645C3.933 5.6864 3.933 5.68634 3.933 5.68629C3.933 5.68623 3.933 5.68618 3.933 5.68612C3.933 5.68607 3.933 5.68602 3.933 5.68596C3.933 5.68591 3.933 5.68585 3.933 5.6858C3.933 5.68574 3.933 5.68569 3.933 5.68563C3.933 5.68558 3.933 5.68552 3.933 5.68547C3.933 5.68541 3.933 5.68536 3.933 5.6853C3.933 5.68525 3.933 5.68519 3.933 5.68514C3.933 5.68509 3.933 5.68503 3.933 5.68498C3.933 5.68492 3.933 5.68487 3.933 5.68481C3.933 5.68476 3.933 5.6847 3.933 5.68465C3.933 5.68459 3.933 5.68454 3.933 5.68448C3.933 5.68443 3.933 5.68437 3.933 5.68432C3.933 5.68427 3.933 5.68421 3.933 5.68416C3.933 5.6841 3.933 5.68405 3.933 5.68399C3.933 5.68394 3.933 5.68388 3.933 5.68383C3.933 5.68377 3.933 5.68372 3.933 5.68366C3.933 5.68361 3.933 5.68355 3.933 5.6835C3.933 5.68344 3.933 5.68339 3.933 5.68334C3.933 5.68328 3.933 5.68323 3.933 5.68317C3.933 5.68312 3.933 5.68306 3.933 5.68301C3.933 5.68295 3.933 5.6829 3.933 5.68284C3.933 5.68279 3.933 5.68273 3.933 5.68268C3.933 5.68262 3.933 5.68257 3.933 5.68252C3.933 5.68246 3.933 5.68241 3.933 5.68235C3.933 5.6823 3.933 5.68224 3.933 5.68219C3.933 5.68213 3.933 5.68208 3.933 5.68202C3.933 5.68197 3.933 5.68191 3.933 5.68186C3.933 5.6818 3.933 5.68175 3.933 5.68169C3.933 5.68164 3.933 5.68159 3.933 5.68153C3.933 5.68148 3.933 5.68142 3.933 5.68137C3.933 5.68131 3.933 5.68126 3.933 5.6812C3.933 5.68115 3.933 5.68109 3.933 5.68104C3.933 5.68098 3.933 5.68093 3.933 5.68087C3.933 5.68082 3.933 5.68077 3.933 5.68071C3.933 5.68066 3.933 5.6806 3.933 5.68055C3.933 5.68049 3.933 5.68044 3.933 5.68038C3.933 5.68033 3.933 5.68027 3.933 5.68022C3.933 5.68016 3.933 5.68011 3.933 5.68005C3.933 5.68 3.933 5.67994 3.933 5.67989C3.933 5.67984 3.933 5.67978 3.933 5.67973C3.933 5.67967 3.933 5.67962 3.933 5.67956C3.933 5.67951 3.933 5.67945 3.933 5.6794C3.933 5.67934 3.933 5.67929 3.933 5.67923C3.933 5.67918 3.933 5.67912 3.933 5.67907C3.933 5.67902 3.933 5.67896 3.933 5.67891C3.933 5.67885 3.933 5.6788 3.933 5.67874C3.933 5.67869 3.933 5.67863 3.933 5.67858C3.933 5.67852 3.933 5.67847 3.933 5.67841C3.933 5.67836 3.933 5.6783 3.933 5.67825C3.933 5.67819 3.933 5.67814 3.933 5.67809C3.933 5.67803 3.933 5.67798 3.933 5.67792C3.933 5.67787 3.933 5.67781 3.933 5.67776C3.933 5.6777 3.933 5.67765 3.933 5.67759C3.933 5.67754 3.933 5.67748 3.933 5.67743C3.933 5.67737 3.933 5.67732 3.933 5.67727C3.933 5.67721 3.933 5.67716 3.933 5.6771C3.933 5.67705 3.933 5.67699 3.933 5.67694C3.933 5.67688 3.933 5.67683 3.933 5.67677C3.933 5.67672 3.933 5.67666 3.933 5.67661C3.933 5.67655 3.933 5.6765 3.933 5.67645C3.933 5.67639 3.933 5.67634 3.933 5.67628C3.933 5.67623 3.933 5.67617 3.933 5.67612C3.933 5.67606 3.933 5.67601 3.933 5.67595C3.933 5.6759 3.933 5.67584 3.933 5.67579C3.933 5.67573 3.933 5.67568 3.933 5.67562C3.933 5.67557 3.933 5.67552 3.933 5.67546C3.933 5.67541 3.933 5.67535 3.933 5.6753C3.933 5.67524 3.933 5.67519 3.933 5.67513C3.933 5.67508 3.933 5.67502 3.933 5.67497C3.933 5.67491 3.933 5.67486 3.933 5.6748C3.933 5.67475 3.933 5.6747 3.933 5.67464C3.933 5.67459 3.933 5.67453 3.933 5.67448C3.933 5.67442 3.933 5.67437 3.933 5.67431C3.933 5.67426 3.933 5.6742 3.933 5.67415C3.933 5.67409 3.933 5.67404 3.933 5.67398C3.933 5.67393 3.933 5.67387 3.933 5.67382C3.933 5.67377 3.933 5.67371 3.933 5.67366C3.933 5.6736 3.933 5.67355 3.933 5.67349C3.933 5.67344 3.933 5.67338 3.933 5.67333C3.933 5.67327 3.933 5.67322 3.933 5.67316C3.933 5.67311 3.933 5.67305 3.933 5.673C3.933 5.67295 3.933 5.67289 3.933 5.67284C3.933 5.67278 3.933 5.67273 3.933 5.67267C3.933 5.67262 3.933 5.67256 3.933 5.67251C3.933 5.67245 3.933 5.6724 3.933 5.67234C3.933 5.67229 3.933 5.67223 3.933 5.67218C3.933 5.67212 3.933 5.67207 3.933 5.67202C3.933 5.67196 3.933 5.67191 3.933 5.67185C3.933 5.6718 3.933 5.67174 3.933 5.67169C3.933 5.67163 3.933 5.67158 3.933 5.67152C3.933 5.67147 3.933 5.67141 3.933 5.67136C3.933 5.6713 3.933 5.67125 3.933 5.6712C3.933 5.67114 3.933 5.67109 3.933 5.67103C3.933 5.67098 3.933 5.67092 3.933 5.67087C3.933 5.67081 3.933 5.67076 3.933 5.6707C3.933 5.67065 3.933 5.67059 3.933 5.67054C3.933 5.67048 3.933 5.67043 3.933 5.67037C3.933 5.67032 3.933 5.67027 3.933 5.67021C3.933 5.67016 3.933 5.6701 3.933 5.67005C3.933 5.66999 3.933 5.66994 3.933 5.66988C3.933 5.66983 3.933 5.66977 3.933 5.66972C3.933 5.66966 3.933 5.66961 3.933 5.66955C3.933 5.6695 3.933 5.66945 3.933 5.66939H2.433C2.433 5.66945 2.433 5.6695 2.433 5.66955C2.433 5.66961 2.433 5.66966 2.433 5.66972C2.433 5.66977 2.433 5.66983 2.433 5.66988C2.433 5.66994 2.433 5.66999 2.433 5.67005C2.433 5.6701 2.433 5.67016 2.433 5.67021C2.433 5.67027 2.433 5.67032 2.433 5.67037C2.433 5.67043 2.433 5.67048 2.433 5.67054C2.433 5.67059 2.433 5.67065 2.433 5.6707C2.433 5.67076 2.433 5.67081 2.433 5.67087C2.433 5.67092 2.433 5.67098 2.433 5.67103C2.433 5.67109 2.433 5.67114 2.433 5.6712C2.433 5.67125 2.433 5.6713 2.433 5.67136C2.433 5.67141 2.433 5.67147 2.433 5.67152C2.433 5.67158 2.433 5.67163 2.433 5.67169C2.433 5.67174 2.433 5.6718 2.433 5.67185C2.433 5.67191 2.433 5.67196 2.433 5.67202C2.433 5.67207 2.433 5.67212 2.433 5.67218C2.433 5.67223 2.433 5.67229 2.433 5.67234C2.433 5.6724 2.433 5.67245 2.433 5.67251C2.433 5.67256 2.433 5.67262 2.433 5.67267C2.433 5.67273 2.433 5.67278 2.433 5.67284C2.433 5.67289 2.433 5.67295 2.433 5.673C2.433 5.67305 2.433 5.67311 2.433 5.67316C2.433 5.67322 2.433 5.67327 2.433 5.67333C2.433 5.67338 2.433 5.67344 2.433 5.67349C2.433 5.67355 2.433 5.6736 2.433 5.67366C2.433 5.67371 2.433 5.67377 2.433 5.67382C2.433 5.67387 2.433 5.67393 2.433 5.67398C2.433 5.67404 2.433 5.67409 2.433 5.67415C2.433 5.6742 2.433 5.67426 2.433 5.67431C2.433 5.67437 2.433 5.67442 2.433 5.67448C2.433 5.67453 2.433 5.67459 2.433 5.67464C2.433 5.6747 2.433 5.67475 2.433 5.6748C2.433 5.67486 2.433 5.67491 2.433 5.67497C2.433 5.67502 2.433 5.67508 2.433 5.67513C2.433 5.67519 2.433 5.67524 2.433 5.6753C2.433 5.67535 2.433 5.67541 2.433 5.67546C2.433 5.67552 2.433 5.67557 2.433 5.67562C2.433 5.67568 2.433 5.67573 2.433 5.67579C2.433 5.67584 2.433 5.6759 2.433 5.67595C2.433 5.67601 2.433 5.67606 2.433 5.67612C2.433 5.67617 2.433 5.67623 2.433 5.67628C2.433 5.67634 2.433 5.67639 2.433 5.67645C2.433 5.6765 2.433 5.67655 2.433 5.67661C2.433 5.67666 2.433 5.67672 2.433 5.67677C2.433 5.67683 2.433 5.67688 2.433 5.67694C2.433 5.67699 2.433 5.67705 2.433 5.6771C2.433 5.67716 2.433 5.67721 2.433 5.67727C2.433 5.67732 2.433 5.67737 2.433 5.67743C2.433 5.67748 2.433 5.67754 2.433 5.67759C2.433 5.67765 2.433 5.6777 2.433 5.67776C2.433 5.67781 2.433 5.67787 2.433 5.67792C2.433 5.67798 2.433 5.67803 2.433 5.67809C2.433 5.67814 2.433 5.67819 2.433 5.67825C2.433 5.6783 2.433 5.67836 2.433 5.67841C2.433 5.67847 2.433 5.67852 2.433 5.67858C2.433 5.67863 2.433 5.67869 2.433 5.67874C2.433 5.6788 2.433 5.67885 2.433 5.67891C2.433 5.67896 2.433 5.67902 2.433 5.67907C2.433 5.67912 2.433 5.67918 2.433 5.67923C2.433 5.67929 2.433 5.67934 2.433 5.6794C2.433 5.67945 2.433 5.67951 2.433 5.67956C2.433 5.67962 2.433 5.67967 2.433 5.67973C2.433 5.67978 2.433 5.67984 2.433 5.67989C2.433 5.67994 2.433 5.68 2.433 5.68005C2.433 5.68011 2.433 5.68016 2.433 5.68022C2.433 5.68027 2.433 5.68033 2.433 5.68038C2.433 5.68044 2.433 5.68049 2.433 5.68055C2.433 5.6806 2.433 5.68066 2.433 5.68071C2.433 5.68077 2.433 5.68082 2.433 5.68087C2.433 5.68093 2.433 5.68098 2.433 5.68104C2.433 5.68109 2.433 5.68115 2.433 5.6812C2.433 5.68126 2.433 5.68131 2.433 5.68137C2.433 5.68142 2.433 5.68148 2.433 5.68153C2.433 5.68159 2.433 5.68164 2.433 5.68169C2.433 5.68175 2.433 5.6818 2.433 5.68186C2.433 5.68191 2.433 5.68197 2.433 5.68202C2.433 5.68208 2.433 5.68213 2.433 5.68219C2.433 5.68224 2.433 5.6823 2.433 5.68235C2.433 5.68241 2.433 5.68246 2.433 5.68252C2.433 5.68257 2.433 5.68262 2.433 5.68268C2.433 5.68273 2.433 5.68279 2.433 5.68284C2.433 5.6829 2.433 5.68295 2.433 5.68301C2.433 5.68306 2.433 5.68312 2.433 5.68317C2.433 5.68323 2.433 5.68328 2.433 5.68334C2.433 5.68339 2.433 5.68344 2.433 5.6835C2.433 5.68355 2.433 5.68361 2.433 5.68366C2.433 5.68372 2.433 5.68377 2.433 5.68383C2.433 5.68388 2.433 5.68394 2.433 5.68399C2.433 5.68405 2.433 5.6841 2.433 5.68416C2.433 5.68421 2.433 5.68427 2.433 5.68432C2.433 5.68437 2.433 5.68443 2.433 5.68448C2.433 5.68454 2.433 5.68459 2.433 5.68465C2.433 5.6847 2.433 5.68476 2.433 5.68481C2.433 5.68487 2.433 5.68492 2.433 5.68498C2.433 5.68503 2.433 5.68509 2.433 5.68514C2.433 5.68519 2.433 5.68525 2.433 5.6853C2.433 5.68536 2.433 5.68541 2.433 5.68547C2.433 5.68552 2.433 5.68558 2.433 5.68563C2.433 5.68569 2.433 5.68574 2.433 5.6858C2.433 5.68585 2.433 5.68591 2.433 5.68596C2.433 5.68602 2.433 5.68607 2.433 5.68612C2.433 5.68618 2.433 5.68623 2.433 5.68629C2.433 5.68634 2.433 5.6864 2.433 5.68645C2.433 5.68651 2.433 5.68656 2.433 5.68662C2.433 5.68667 2.433 5.68673 2.433 5.68678C2.433 5.68684 2.433 5.68689 2.433 5.68694C2.433 5.687 2.433 5.68705 2.433 5.68711C2.433 5.68716 2.433 5.68722 2.433 5.68727C2.433 5.68733 2.433 5.68738 2.433 5.68744C2.433 5.68749 2.433 5.68755 2.433 5.6876C2.433 5.68766 2.433 5.68771 2.433 5.68777C2.433 5.68782 2.433 5.68787 2.433 5.68793C2.433 5.68798 2.433 5.68804 2.433 5.68809C2.433 5.68815 2.433 5.6882 2.433 5.68826C2.433 5.68831 2.433 5.68837 2.433 5.68842C2.433 5.68848 2.433 5.68853 2.433 5.68859C2.433 5.68864 2.433 5.68869 2.433 5.68875C2.433 5.6888 2.433 5.68886 2.433 5.68891C2.433 5.68897 2.433 5.68902 2.433 5.68908C2.433 5.68913 2.433 5.68919 2.433 5.68924C2.433 5.6893 2.433 5.68935 2.433 5.68941C2.433 5.68946 2.433 5.68952 2.433 5.68957C2.433 5.68962 2.433 5.68968 2.433 5.68973C2.433 5.68979 2.433 5.68984 2.433 5.6899C2.433 5.68995 2.433 5.69001 2.433 5.69006C2.433 5.69012 2.433 5.69017 2.433 5.69023C2.433 5.69028 2.433 5.69034 2.433 5.69039C2.433 5.69044 2.433 5.6905 2.433 5.69055C2.433 5.69061 2.433 5.69066 2.433 5.69072C2.433 5.69077 2.433 5.69083 2.433 5.69088C2.433 5.69094 2.433 5.69099 2.433 5.69105C2.433 5.6911 2.433 5.69116 2.433 5.69121C2.433 5.69127 2.433 5.69132 2.433 5.69137C2.433 5.69143 2.433 5.69148 2.433 5.69154C2.433 5.69159 2.433 5.69165 2.433 5.6917C2.433 5.69176 2.433 5.69181 2.433 5.69187C2.433 5.69192 2.433 5.69198 2.433 5.69203C2.433 5.69209 2.433 5.69214 2.433 5.69219C2.433 5.69225 2.433 5.6923 2.433 5.69236C2.433 5.69241 2.433 5.69247 2.433 5.69252C2.433 5.69258 2.433 5.69263 2.433 5.69269C2.433 5.69274 2.433 5.6928 2.433 5.69285C2.433 5.69291 2.433 5.69296 2.433 5.69302C2.433 5.69307 2.433 5.69312 2.433 5.69318C2.433 5.69323 2.433 5.69329 2.433 5.69334C2.433 5.6934 2.433 5.69345 2.433 5.69351C2.433 5.69356 2.433 5.69362 2.433 5.69367C2.433 5.69373 2.433 5.69378 2.433 5.69384C2.433 5.69389 2.433 5.69394 2.433 5.694C2.433 5.69405 2.433 5.69411 2.433 5.69416C2.433 5.69422 2.433 5.69427 2.433 5.69433C2.433 5.69438 2.433 5.69444 2.433 5.69449C2.433 5.69455 2.433 5.6946 2.433 5.69466C2.433 5.69471 2.433 5.69477 2.433 5.69482C2.433 5.69487 2.433 5.69493 2.433 5.69498C2.433 5.69504 2.433 5.69509 2.433 5.69515C2.433 5.6952 2.433 5.69526 2.433 5.69531C2.433 5.69537 2.433 5.69542 2.433 5.69548C2.433 5.69553 2.433 5.69559 2.433 5.69564C2.433 5.69569 2.433 5.69575 2.433 5.6958C2.433 5.69586 2.433 5.69591 2.433 5.69597C2.433 5.69602 2.433 5.69608 2.433 5.69613C2.433 5.69619 2.433 5.69624 2.433 5.6963C2.433 5.69635 2.433 5.69641 2.433 5.69646C2.433 5.69652 2.433 5.69657 2.433 5.69662C2.433 5.69668 2.433 5.69673 2.433 5.69679C2.433 5.69684 2.433 5.6969 2.433 5.69695C2.433 5.69701 2.433 5.69706 2.433 5.69712C2.433 5.69717 2.433 5.69723 2.433 5.69728C2.433 5.69734 2.433 5.69739 2.433 5.69744C2.433 5.6975 2.433 5.69755 2.433 5.69761C2.433 5.69766 2.433 5.69772 2.433 5.69777C2.433 5.69783 2.433 5.69788 2.433 5.69794C2.433 5.69799 2.433 5.69805 2.433 5.6981C2.433 5.69816 2.433 5.69821 2.433 5.69827C2.433 5.69832 2.433 5.69837 2.433 5.69843C2.433 5.69848 2.433 5.69854 2.433 5.69859C2.433 5.69865 2.433 5.6987 2.433 5.69876C2.433 5.69881 2.433 5.69887 2.433 5.69892C2.433 5.69898 2.433 5.69903 2.433 5.69909C2.433 5.69914 2.433 5.69919 2.433 5.69925C2.433 5.6993 2.433 5.69936 2.433 5.69941C2.433 5.69947 2.433 5.69952 2.433 5.69958C2.433 5.69963 2.433 5.69969 2.433 5.69974C2.433 5.6998 2.433 5.69985 2.433 5.69991C2.433 5.69996 2.433 5.70002 2.433 5.70007C2.433 5.70012 2.433 5.70018 2.433 5.70023C2.433 5.70029 2.433 5.70034 2.433 5.7004C2.433 5.70045 2.433 5.70051 2.433 5.70056C2.433 5.70062 2.433 5.70067 2.433 5.70073C2.433 5.70078 2.433 5.70084 2.433 5.70089C2.433 5.70094 2.433 5.701 2.433 5.70105C2.433 5.70111 2.433 5.70116 2.433 5.70122C2.433 5.70127 2.433 5.70133 2.433 5.70138C2.433 5.70144 2.433 5.70149 2.433 5.70155C2.433 5.7016 2.433 5.70166 2.433 5.70171C2.433 5.70177 2.433 5.70182 2.433 5.70187C2.433 5.70193 2.433 5.70198 2.433 5.70204C2.433 5.70209 2.433 5.70215 2.433 5.7022C2.433 5.70226 2.433 5.70231 2.433 5.70237C2.433 5.70242 2.433 5.70248 2.433 5.70253C2.433 5.70259 2.433 5.70264 2.433 5.70269C2.433 5.70275 2.433 5.7028 2.433 5.70286C2.433 5.70291 2.433 5.70297 2.433 5.70302C2.433 5.70308 2.433 5.70313 2.433 5.70319C2.433 5.70324 2.433 5.7033 2.433 5.70335C2.433 5.70341 2.433 5.70346 2.433 5.70352C2.433 5.70357 2.433 5.70362 2.433 5.70368C2.433 5.70373 2.433 5.70379 2.433 5.70384C2.433 5.7039 2.433 5.70395 2.433 5.70401C2.433 5.70406 2.433 5.70412 2.433 5.70417C2.433 5.70423 2.433 5.70428 2.433 5.70434C2.433 5.70439 2.433 5.70444 2.433 5.7045C2.433 5.70455 2.433 5.70461 2.433 5.70466C2.433 5.70472 2.433 5.70477 2.433 5.70483C2.433 5.70488 2.433 5.70494 2.433 5.70499C2.433 5.70505 2.433 5.7051 2.433 5.70516C2.433 5.70521 2.433 5.70527 2.433 5.70532C2.433 5.70537 2.433 5.70543 2.433 5.70548C2.433 5.70554 2.433 5.70559 2.433 5.70565C2.433 5.7057 2.433 5.70576 2.433 5.70581C2.433 5.70587 2.433 5.70592 2.433 5.70598C2.433 5.70603 2.433 5.70609 2.433 5.70614C2.433 5.70619 2.433 5.70625 2.433 5.7063C2.433 5.70636 2.433 5.70641 2.433 5.70647C2.433 5.70652 2.433 5.70658 2.433 5.70663C2.433 5.70669 2.433 5.70674 2.433 5.7068C2.433 5.70685 2.433 5.70691 2.433 5.70696C2.433 5.70702 2.433 5.70707 2.433 5.70712C2.433 5.70718 2.433 5.70723 2.433 5.70729C2.433 5.70734 2.433 5.7074 2.433 5.70745C2.433 5.70751 2.433 5.70756 2.433 5.70762C2.433 5.70767 2.433 5.70773 2.433 5.70778C2.433 5.70784 2.433 5.70789 2.433 5.70794C2.433 5.708 2.433 5.70805 2.433 5.70811C2.433 5.70816 2.433 5.70822 2.433 5.70827C2.433 5.70833 2.433 5.70838 2.433 5.70844C2.433 5.70849 2.433 5.70855 2.433 5.7086C2.433 5.70866 2.433 5.70871 2.433 5.70877C2.433 5.70882 2.433 5.70887 2.433 5.70893C2.433 5.70898 2.433 5.70904 2.433 5.70909C2.433 5.70915 2.433 5.7092 2.433 5.70926C2.433 5.70931 2.433 5.70937 2.433 5.70942C2.433 5.70948 2.433 5.70953 2.433 5.70959C2.433 5.70964 2.433 5.70969 2.433 5.70975C2.433 5.7098 2.433 5.70986 2.433 5.70991C2.433 5.70997 2.433 5.71002 2.433 5.71008C2.433 5.71013 2.433 5.71019 2.433 5.71024C2.433 5.7103 2.433 5.71035 2.433 5.71041C2.433 5.71046 2.433 5.71052 2.433 5.71057C2.433 5.71062 2.433 5.71068 2.433 5.71073C2.433 5.71079 2.433 5.71084 2.433 5.7109C2.433 5.71095 2.433 5.71101 2.433 5.71106C2.433 5.71112 2.433 5.71117 2.433 5.71123C2.433 5.71128 2.433 5.71134 2.433 5.71139C2.433 5.71144 2.433 5.7115 2.433 5.71155C2.433 5.71161 2.433 5.71166 2.433 5.71172C2.433 5.71177 2.433 5.71183 2.433 5.71188C2.433 5.71194 2.433 5.71199 2.433 5.71205C2.433 5.7121 2.433 5.71216 2.433 5.71221C2.433 5.71227 2.433 5.71232 2.433 5.71237C2.433 5.71243 2.433 5.71248 2.433 5.71254C2.433 5.71259 2.433 5.71265 2.433 5.7127C2.433 5.71276 2.433 5.71281 2.433 5.71287C2.433 5.71292 2.433 5.71298 2.433 5.71303C2.433 5.71309 2.433 5.71314 2.433 5.71319C2.433 5.71325 2.433 5.7133 2.433 5.71336C2.433 5.71341 2.433 5.71347 2.433 5.71352C2.433 5.71358 2.433 5.71363 2.433 5.71369C2.433 5.71374 2.433 5.7138 2.433 5.71385C2.433 5.71391 2.433 5.71396 2.433 5.71402C2.433 5.71407 2.433 5.71412 2.433 5.71418C2.433 5.71423 2.433 5.71429 2.433 5.71434C2.433 5.7144 2.433 5.71445 2.433 5.71451C2.433 5.71456 2.433 5.71462 2.433 5.71467C2.433 5.71473 2.433 5.71478 2.433 5.71484C2.433 5.71489 2.433 5.71494 2.433 5.715C2.433 5.71505 2.433 5.71511 2.433 5.71516C2.433 5.71522 2.433 5.71527 2.433 5.71533C2.433 5.71538 2.433 5.71544 2.433 5.71549C2.433 5.71555 2.433 5.7156 2.433 5.71566C2.433 5.71571 2.433 5.71576 2.433 5.71582C2.433 5.71587 2.433 5.71593 2.433 5.71598C2.433 5.71604 2.433 5.71609 2.433 5.71615C2.433 5.7162 2.433 5.71626 2.433 5.71631C2.433 5.71637 2.433 5.71642 2.433 5.71648C2.433 5.71653 2.433 5.71659 2.433 5.71664C2.433 5.71669 2.433 5.71675 2.433 5.7168C2.433 5.71686 2.433 5.71691 2.433 5.71697C2.433 5.71702 2.433 5.71708 2.433 5.71713C2.433 5.71719 2.433 5.71724 2.433 5.7173C2.433 5.71735 2.433 5.71741 2.433 5.71746C2.433 5.71751 2.433 5.71757 2.433 5.71762C2.433 5.71768 2.433 5.71773 2.433 5.71779C2.433 5.71784 2.433 5.7179 2.433 5.71795C2.433 5.71801 2.433 5.71806 2.433 5.71812C2.433 5.71817 2.433 5.71823 2.433 5.71828C2.433 5.71834 2.433 5.71839 2.433 5.71844C2.433 5.7185 2.433 5.71855 2.433 5.71861C2.433 5.71866 2.433 5.71872 2.433 5.71877C2.433 5.71883 2.433 5.71888 2.433 5.71894C2.433 5.71899 2.433 5.71905 2.433 5.7191C2.433 5.71916 2.433 5.71921 2.433 5.71926C2.433 5.71932 2.433 5.71937 2.433 5.71943C2.433 5.71948 2.433 5.71954 2.433 5.71959C2.433 5.71965 2.433 5.7197 2.433 5.71976C2.433 5.71981 2.433 5.71987 2.433 5.71992C2.433 5.71998 2.433 5.72003 2.433 5.72009C2.433 5.72014 2.433 5.72019 2.433 5.72025C2.433 5.7203 2.433 5.72036 2.433 5.72041C2.433 5.72047 2.433 5.72052 2.433 5.72058C2.433 5.72063 2.433 5.72069 2.433 5.72074C2.433 5.7208 2.433 5.72085 2.433 5.72091C2.433 5.72096 2.433 5.72102 2.433 5.72107C2.433 5.72112 2.433 5.72118 2.433 5.72123C2.433 5.72129 2.433 5.72134 2.433 5.7214C2.433 5.72145 2.433 5.72151 2.433 5.72156C2.433 5.72162 2.433 5.72167 2.433 5.72173C2.433 5.72178 2.433 5.72184 2.433 5.72189C2.433 5.72194 2.433 5.722 2.433 5.72205C2.433 5.72211 2.433 5.72216 2.433 5.72222C2.433 5.72227 2.433 5.72233 2.433 5.72238C2.433 5.72244 2.433 5.72249 2.433 5.72255C2.433 5.7226 2.433 5.72266 2.433 5.72271C2.433 5.72277 2.433 5.72282 2.433 5.72287C2.433 5.72293 2.433 5.72298 2.433 5.72304C2.433 5.72309 2.433 5.72315 2.433 5.7232C2.433 5.72326 2.433 5.72331 2.433 5.72337C2.433 5.72342 2.433 5.72348 2.433 5.72353C2.433 5.72359 2.433 5.72364 2.433 5.72369C2.433 5.72375 2.433 5.7238 2.433 5.72386C2.433 5.72391 2.433 5.72397 2.433 5.72402C2.433 5.72408 2.433 5.72413 2.433 5.72419C2.433 5.72424 2.433 5.7243 2.433 5.72435C2.433 5.72441 2.433 5.72446 2.433 5.72452C2.433 5.72457 2.433 5.72462 2.433 5.72468C2.433 5.72473 2.433 5.72479 2.433 5.72484C2.433 5.7249 2.433 5.72495 2.433 5.72501C2.433 5.72506 2.433 5.72512 2.433 5.72517C2.433 5.72523 2.433 5.72528 2.433 5.72534C2.433 5.72539 2.433 5.72544 2.433 5.7255C2.433 5.72555 2.433 5.72561 2.433 5.72566C2.433 5.72572 2.433 5.72577 2.433 5.72583C2.433 5.72588 2.433 5.72594 2.433 5.72599C2.433 5.72605 2.433 5.7261 2.433 5.72616C2.433 5.72621 2.433 5.72627 2.433 5.72632C2.433 5.72637 2.433 5.72643 2.433 5.72648C2.433 5.72654 2.433 5.72659 2.433 5.72665C2.433 5.7267 2.433 5.72676 2.433 5.72681C2.433 5.72687 2.433 5.72692 2.433 5.72698C2.433 5.72703 2.433 5.72709 2.433 5.72714C2.433 5.72719 2.433 5.72725 2.433 5.7273C2.433 5.72736 2.433 5.72741 2.433 5.72747C2.433 5.72752 2.433 5.72758 2.433 5.72763C2.433 5.72769 2.433 5.72774 2.433 5.7278C2.433 5.72785 2.433 5.72791 2.433 5.72796C2.433 5.72802 2.433 5.72807 2.433 5.72812C2.433 5.72818 2.433 5.72823 2.433 5.72829C2.433 5.72834 2.433 5.7284 2.433 5.72845C2.433 5.72851 2.433 5.72856 2.433 5.72862C2.433 5.72867 2.433 5.72873 2.433 5.72878C2.433 5.72884 2.433 5.72889 2.433 5.72894C2.433 5.729 2.433 5.72905 2.433 5.72911C2.433 5.72916 2.433 5.72922 2.433 5.72927C2.433 5.72933 2.433 5.72938 2.433 5.72944C2.433 5.72949 2.433 5.72955 2.433 5.7296C2.433 5.72966 2.433 5.72971 2.433 5.72977C2.433 5.72982 2.433 5.72987 2.433 5.72993C2.433 5.72998 2.433 5.73004 2.433 5.73009C2.433 5.73015 2.433 5.7302 2.433 5.73026C2.433 5.73031 2.433 5.73037 2.433 5.73042C2.433 5.73048 2.433 5.73053 2.433 5.73059C2.433 5.73064 2.433 5.73069 2.433 5.73075C2.433 5.7308 2.433 5.73086 2.433 5.73091C2.433 5.73097 2.433 5.73102 2.433 5.73108C2.433 5.73113 2.433 5.73119 2.433 5.73124C2.433 5.7313 2.433 5.73135 2.433 5.73141C2.433 5.73146 2.433 5.73152 2.433 5.73157C2.433 5.73162 2.433 5.73168 2.433 5.73173C2.433 5.73179 2.433 5.73184 2.433 5.7319C2.433 5.73195 2.433 5.73201 2.433 5.73206C2.433 5.73212 2.433 5.73217 2.433 5.73223C2.433 5.73228 2.433 5.73234 2.433 5.73239C2.433 5.73244 2.433 5.7325 2.433 5.73255C2.433 5.73261 2.433 5.73266 2.433 5.73272C2.433 5.73277 2.433 5.73283 2.433 5.73288C2.433 5.73294 2.433 5.73299 2.433 5.73305C2.433 5.7331 2.433 5.73316 2.433 5.73321C2.433 5.73327 2.433 5.73332 2.433 5.73337C2.433 5.73343 2.433 5.73348 2.433 5.73354C2.433 5.73359 2.433 5.73365 2.433 5.7337C2.433 5.73376 2.433 5.73381 2.433 5.73387C2.433 5.73392 2.433 5.73398 2.433 5.73403C2.433 5.73409 2.433 5.73414 2.433 5.73419C2.433 5.73425 2.433 5.7343 2.433 5.73436C2.433 5.73441 2.433 5.73447 2.433 5.73452C2.433 5.73458 2.433 5.73463 2.433 5.73469C2.433 5.73474 2.433 5.7348 2.433 5.73485C2.433 5.73491 2.433 5.73496 2.433 5.73502C2.433 5.73507 2.433 5.73512 2.433 5.73518C2.433 5.73523 2.433 5.73529 2.433 5.73534C2.433 5.7354 2.433 5.73545 2.433 5.73551C2.433 5.73556 2.433 5.73562 2.433 5.73567C2.433 5.73573 2.433 5.73578 2.433 5.73584C2.433 5.73589 2.433 5.73594 2.433 5.736C2.433 5.73605 2.433 5.73611 2.433 5.73616C2.433 5.73622 2.433 5.73627 2.433 5.73633C2.433 5.73638 2.433 5.73644 2.433 5.73649C2.433 5.73655 2.433 5.7366 2.433 5.73666C2.433 5.73671 2.433 5.73677 2.433 5.73682C2.433 5.73687 2.433 5.73693 2.433 5.73698C2.433 5.73704 2.433 5.73709 2.433 5.73715C2.433 5.7372 2.433 5.73726 2.433 5.73731C2.433 5.73737 2.433 5.73742 2.433 5.73748C2.433 5.73753 2.433 5.73759 2.433 5.73764C2.433 5.73769 2.433 5.73775 2.433 5.7378C2.433 5.73786 2.433 5.73791 2.433 5.73797C2.433 5.73802 2.433 5.73808 2.433 5.73813C2.433 5.73819 2.433 5.73824 2.433 5.7383C2.433 5.73835 2.433 5.73841 2.433 5.73846C2.433 5.73852 2.433 5.73857 2.433 5.73862C2.433 5.73868 2.433 5.73873 2.433 5.73879C2.433 5.73884 2.433 5.7389 2.433 5.73895C2.433 5.73901 2.433 5.73906 2.433 5.73912C2.433 5.73917 2.433 5.73923 2.433 5.73928C2.433 5.73934 2.433 5.73939 2.433 5.73944C2.433 5.7395 2.433 5.73955 2.433 5.73961C2.433 5.73966 2.433 5.73972 2.433 5.73977C2.433 5.73983 2.433 5.73988 2.433 5.73994C2.433 5.73999 2.433 5.74005 2.433 5.7401C2.433 5.74016 2.433 5.74021 2.433 5.74027C2.433 5.74032 2.433 5.74037 2.433 5.74043C2.433 5.74048 2.433 5.74054 2.433 5.74059C2.433 5.74065 2.433 5.7407 2.433 5.74076C2.433 5.74081 2.433 5.74087 2.433 5.74092C2.433 5.74098 2.433 5.74103 2.433 5.74109C2.433 5.74114 2.433 5.74119 2.433 5.74125C2.433 5.7413 2.433 5.74136 2.433 5.74141C2.433 5.74147 2.433 5.74152 2.433 5.74158C2.433 5.74163 2.433 5.74169 2.433 5.74174C2.433 5.7418 2.433 5.74185 2.433 5.74191C2.433 5.74196 2.433 5.74202 2.433 5.74207C2.433 5.74212 2.433 5.74218 2.433 5.74223C2.433 5.74229 2.433 5.74234 2.433 5.7424C2.433 5.74245 2.433 5.74251 2.433 5.74256C2.433 5.74262 2.433 5.74267 2.433 5.74273C2.433 5.74278 2.433 5.74284 2.433 5.74289C2.433 5.74294 2.433 5.743 2.433 5.74305C2.433 5.74311 2.433 5.74316 2.433 5.74322C2.433 5.74327 2.433 5.74333 2.433 5.74338C2.433 5.74344 2.433 5.74349 2.433 5.74355C2.433 5.7436 2.433 5.74366 2.433 5.74371C2.433 5.74377 2.433 5.74382 2.433 5.74387C2.433 5.74393 2.433 5.74398 2.433 5.74404C2.433 5.74409 2.433 5.74415 2.433 5.7442C2.433 5.74426 2.433 5.74431 2.433 5.74437C2.433 5.74442 2.433 5.74448 2.433 5.74453C2.433 5.74459 2.433 5.74464 2.433 5.7447C2.433 5.74475 2.433 5.7448 2.433 5.74486C2.433 5.74491 2.433 5.74497 2.433 5.74502C2.433 5.74508 2.433 5.74513 2.433 5.74519C2.433 5.74524 2.433 5.7453 2.433 5.74535C2.433 5.74541 2.433 5.74546 2.433 5.74552C2.433 5.74557 2.433 5.74562 2.433 5.74568C2.433 5.74573 2.433 5.74579 2.433 5.74584C2.433 5.7459 2.433 5.74595 2.433 5.74601C2.433 5.74606 2.433 5.74612 2.433 5.74617C2.433 5.74623 2.433 5.74628 2.433 5.74634C2.433 5.74639 2.433 5.74645 2.433 5.7465C2.433 5.74655 2.433 5.74661 2.433 5.74666C2.433 5.74672 2.433 5.74677 2.433 5.74683C2.433 5.74688 2.433 5.74694 2.433 5.74699C2.433 5.74705 2.433 5.7471 2.433 5.74716C2.433 5.74721 2.433 5.74727 2.433 5.74732C2.433 5.74737 2.433 5.74743 2.433 5.74748C2.433 5.74754 2.433 5.74759 2.433 5.74765C2.433 5.7477 2.433 5.74776 2.433 5.74781C2.433 5.74787 2.433 5.74792 2.433 5.74798C2.433 5.74803 2.433 5.74809 2.433 5.74814C2.433 5.7482 2.433 5.74825 2.433 5.7483C2.433 5.74836 2.433 5.74841 2.433 5.74847C2.433 5.74852 2.433 5.74858 2.433 5.74863C2.433 5.74869 2.433 5.74874 2.433 5.7488C2.433 5.74885 2.433 5.74891 2.433 5.74896C2.433 5.74902 2.433 5.74907 2.433 5.74912C2.433 5.74918 2.433 5.74923 2.433 5.74929C2.433 5.74934 2.433 5.7494 2.433 5.74945C2.433 5.74951 2.433 5.74956 2.433 5.74962C2.433 5.74967 2.433 5.74973 2.433 5.74978C2.433 5.74984 2.433 5.74989 2.433 5.74995C2.433 5.75 2.433 5.75005 2.433 5.75011C2.433 5.75016 2.433 5.75022 2.433 5.75027C2.433 5.75033 2.433 5.75038 2.433 5.75044C2.433 5.75049 2.433 5.75055 2.433 5.7506C2.433 5.75066 2.433 5.75071 2.433 5.75077C2.433 5.75082 2.433 5.75087 2.433 5.75093C2.433 5.75098 2.433 5.75104 2.433 5.75109C2.433 5.75115 2.433 5.7512 2.433 5.75126C2.433 5.75131 2.433 5.75137 2.433 5.75142C2.433 5.75148 2.433 5.75153 2.433 5.75159C2.433 5.75164 2.433 5.7517 2.433 5.75175C2.433 5.7518 2.433 5.75186 2.433 5.75191C2.433 5.75197 2.433 5.75202 2.433 5.75208C2.433 5.75213 2.433 5.75219 2.433 5.75224C2.433 5.7523 2.433 5.75235 2.433 5.75241C2.433 5.75246 2.433 5.75252 2.433 5.75257C2.433 5.75262 2.433 5.75268 2.433 5.75273C2.433 5.75279 2.433 5.75284 2.433 5.7529C2.433 5.75295 2.433 5.75301 2.433 5.75306C2.433 5.75312 2.433 5.75317 2.433 5.75323C2.433 5.75328 2.433 5.75334 2.433 5.75339H3.933ZM3.93217 5.70469C3.98518 4.57967 4.93586 3.70811 6.06124 3.7528L6.12076 2.25398C4.17193 2.17659 2.52563 3.68589 2.43383 5.63409L3.93217 5.70469ZM6.09243 3.75339C6.36913 3.75286 6.6438 3.80049 6.90417 3.89413L7.41183 2.48265C6.98771 2.33011 6.54029 2.25253 6.08957 2.25339L6.09243 3.75339ZM7.82491 3.53151C8.39727 2.41906 9.55277 1.72923 10.8036 1.75325L10.8324 0.253529C9.00937 0.218514 7.32528 1.22391 6.49109 2.84527L7.82491 3.53151ZM10.8492 1.75274C12.5522 1.68183 13.9918 3.00157 14.0688 4.70428L15.5672 4.63651C15.4529 2.10831 13.3154 0.14875 10.7868 0.25404L10.8492 1.75274ZM14.068 4.67105C14.0682 4.94861 14.0246 5.22446 13.9388 5.4884L15.3652 5.95238C15.4999 5.53818 15.5684 5.10529 15.568 4.66973L14.068 4.67105ZM14.5454 6.46277C15.4987 6.59968 16.217 7.39993 16.2505 8.36245L17.7495 8.31033C17.6908 6.62192 16.4309 5.21816 14.7586 4.97801L14.5454 6.46277ZM16.2508 8.30137C16.1982 9.42697 15.2469 10.2991 14.121 10.254L14.061 11.7528C16.0108 11.8309 17.6581 10.3206 17.7492 8.37141L16.2508 8.30137ZM8.46967 12.4731L6.46967 14.4731L7.53033 15.5337L9.53033 13.5337L8.46967 12.4731ZM7.75 15.0034V7.00342H6.25V15.0034H7.75ZM7.53033 14.4731L5.53033 12.4731L4.46967 13.5337L6.46967 15.5337L7.53033 14.4731ZM9.53033 9.53375L11.5303 7.53375L10.4697 6.47309L8.46967 8.47309L9.53033 9.53375ZM10.25 7.00342V15.0034H11.75V7.00342H10.25ZM10.4697 7.53375L12.4697 9.53375L13.5303 8.47309L11.5303 6.47309L10.4697 7.53375Z" fill="black"/>
</svg>
