<svg width="18" height="16" viewBox="0 0 18 16" fill="none" xmlns="http://www.w3.org/2000/svg">
<path d="M6.94308 7.78678C6.58334 7.99211 6.45817 8.45019 6.6635 8.80993C6.86883 9.16967 7.32691 9.29484 7.68665 9.08951L6.94308 7.78678ZM13.8186 5.58951C14.1784 5.38418 14.3036 4.9261 14.0982 4.56636C13.8929 4.20662 13.4348 4.08145 13.0751 4.28678L13.8186 5.58951ZM7.50704 7.71319C7.10666 7.60705 6.69604 7.84558 6.5899 8.24596C6.48376 8.64635 6.72229 9.05696 7.12268 9.1631L7.50704 7.71319ZM9.54068 9.8041C9.94106 9.91024 10.3517 9.67171 10.4578 9.27133C10.564 8.87094 10.3254 8.46033 9.92504 8.35419L9.54068 9.8041ZM6.59097 8.24196C6.48263 8.64175 6.71888 9.05368 7.11868 9.16203C7.51847 9.27038 7.9304 9.03412 8.03875 8.63433L6.59097 8.24196ZM8.68675 6.24333C8.7951 5.84354 8.55884 5.43161 8.15905 5.32326C7.75925 5.21491 7.34732 5.45117 7.23898 5.85096L8.68675 6.24333ZM13.6115 4.20644C13.2074 4.1155 12.8061 4.36938 12.7152 4.77349C12.6242 5.17759 12.8781 5.57891 13.2822 5.66985L13.6115 4.20644ZM16.8372 6.46985C17.2413 6.56078 17.6426 6.30691 17.7336 5.9028C17.8245 5.4987 17.5706 5.09738 17.1665 5.00644L16.8372 6.46985ZM12.7275 4.72607C12.6103 5.12338 12.8375 5.54041 13.2348 5.65754C13.6321 5.77466 14.0491 5.54753 14.1663 5.15022L12.7275 4.72607ZM15.2093 1.61222C15.3264 1.21491 15.0992 0.79788 14.7019 0.680753C14.3046 0.563627 13.8876 0.79076 13.7705 1.18807L15.2093 1.61222ZM15.9109 8.00001C15.9108 7.58579 15.5749 7.25007 15.1607 7.25014C14.7465 7.25022 14.4108 7.58607 14.4109 8.00028L15.9109 8.00001ZM14.9199 9.81214L15.6434 10.0096L15.6438 10.0083L14.9199 9.81214ZM11.6199 14.0621L11.2493 13.4101L11.2485 13.4105L11.6199 14.0621ZM3.76986 13.5531L3.3166 14.1507L3.31746 14.1513L3.76986 13.5531ZM1.94986 11.5001L2.59743 11.1218L2.59708 11.1212L1.94986 11.5001ZM1.73086 4.90014L1.06035 4.56412L1.05995 4.56492L1.73086 4.90014ZM4.54086 1.93814L4.91171 2.59004L4.91229 2.58971L4.54086 1.93814ZM11.2494 2.58971C11.6093 2.79485 12.0673 2.66943 12.2724 2.30958C12.4776 1.94973 12.3521 1.49172 11.9923 1.28658L11.2494 2.58971ZM13.2559 8.00034C13.256 7.58612 12.9203 7.25025 12.5061 7.25014C12.0918 7.25004 11.756 7.58574 11.7559 7.99995L13.2559 8.00034ZM12.3549 9.13214L13.0785 9.32938L13.0787 9.32855L12.3549 9.13214ZM10.2929 11.7891L9.92218 11.1371L9.92151 11.1375L10.2929 11.7891ZM5.38686 11.4711L4.93376 12.0688L4.9345 12.0694L5.38686 11.4711ZM4.24886 10.1881L4.89633 9.80962L4.89617 9.80933L4.24886 10.1881ZM4.11186 6.06514L3.44117 5.72947L3.44084 5.73014L4.11186 6.06514ZM5.86886 4.21114L6.24006 4.86284L6.24025 4.86273L5.86886 4.21114ZM9.92247 4.86273C10.2823 5.06785 10.7403 4.9424 10.9455 4.58254C11.1506 4.22267 11.0251 3.76467 10.6653 3.55956L9.92247 4.86273ZM7.68665 9.08951L13.8186 5.58951L13.0751 4.28678L6.94308 7.78678L7.68665 9.08951ZM7.12268 9.1631L9.54068 9.8041L9.92504 8.35419L7.50704 7.71319L7.12268 9.1631ZM8.03875 8.63433L8.68675 6.24333L7.23898 5.85096L6.59097 8.24196L8.03875 8.63433ZM13.2822 5.66985L16.8372 6.46985L17.1665 5.00644L13.6115 4.20644L13.2822 5.66985ZM14.1663 5.15022L15.2093 1.61222L13.7705 1.18807L12.7275 4.72607L14.1663 5.15022ZM14.4109 8.00028C14.411 8.54598 14.3387 9.08928 14.196 9.61598L15.6438 10.0083C15.8212 9.35363 15.911 8.67831 15.9109 8.00001L14.4109 8.00028ZM14.1963 9.61471C13.7579 11.2214 12.6974 12.5873 11.2493 13.4101L11.9904 14.7142C13.7853 13.6943 15.0999 12.0012 15.6434 10.0096L14.1963 9.61471ZM11.2485 13.4105C9.026 14.6772 6.26258 14.498 4.22227 12.955L3.31746 14.1513C5.83619 16.0562 9.24759 16.2774 11.9912 14.7137L11.2485 13.4105ZM4.22312 12.9556C3.56597 12.4571 3.01354 11.834 2.59743 11.1218L1.30229 11.8785C1.81787 12.7609 2.50235 13.533 3.3166 14.1507L4.22312 12.9556ZM2.59708 11.1212C1.54146 9.31833 1.468 7.10423 2.40178 5.23537L1.05995 4.56492C-0.100442 6.88733 -0.00914526 9.63873 1.30264 11.8791L2.59708 11.1212ZM2.40137 5.23617C2.95809 4.1253 3.83169 3.20445 4.91171 2.59004L4.17001 1.28625C2.83214 2.04734 1.74997 3.18804 1.06035 4.56412L2.40137 5.23617ZM4.91229 2.58971C6.87632 1.4701 9.28541 1.4701 11.2494 2.58971L11.9923 1.28658C9.56781 -0.0955263 6.59391 -0.0955263 4.16943 1.28658L4.91229 2.58971ZM11.7559 7.99995C11.7558 8.31603 11.7138 8.6307 11.631 8.93574L13.0787 9.32855C13.1962 8.89558 13.2557 8.44896 13.2559 8.00034L11.7559 7.99995ZM11.6313 8.93491C11.3772 9.86709 10.7621 10.6596 9.92218 11.1371L10.6635 12.4411C11.8504 11.7664 12.7194 10.6466 13.0785 9.32938L11.6313 8.93491ZM9.92151 11.1375C8.63023 11.8734 7.0247 11.7694 5.83922 10.8729L4.9345 12.0694C6.59839 13.3276 8.85182 13.4736 10.6642 12.4408L9.92151 11.1375ZM5.83996 10.8735C5.45855 10.5843 5.13789 10.2228 4.89633 9.80962L3.60139 10.5667C3.94247 11.1501 4.39522 11.6605 4.93376 12.0688L5.83996 10.8735ZM4.89617 9.80933C4.28502 8.76501 4.24241 7.48274 4.78288 6.40015L3.44084 5.73014C2.67403 7.26607 2.73448 9.08531 3.60156 10.567L4.89617 9.80933ZM4.78255 6.40082C5.10562 5.75532 5.61283 5.2201 6.24006 4.86284L5.49766 3.55945C4.61267 4.06352 3.89701 4.81869 3.44117 5.72947L4.78255 6.40082ZM6.24025 4.86273C7.38148 4.21226 8.78125 4.21226 9.92247 4.86273L10.6653 3.55956C9.06361 2.64665 7.09911 2.64665 5.49747 3.55956L6.24025 4.86273Z" fill="black"/>
</svg>
