<svg width="16" height="20" viewBox="0 0 16 20" fill="none" xmlns="http://www.w3.org/2000/svg">
<path fill-rule="evenodd" clip-rule="evenodd" d="M1 3C1 1.89543 1.89543 1 3 1C4.10457 1 5 1.89543 5 3C5 4.10457 4.10457 5 3 5C2.46957 5 1.96086 4.78929 1.58579 4.41421C1.21071 4.03914 1 3.53043 1 3Z" stroke="#10D749" stroke-width="1.5" stroke-linecap="round" stroke-linejoin="round"/>
<path fill-rule="evenodd" clip-rule="evenodd" d="M11 3C11 1.89543 11.8954 1 13 1C14.1046 1 15 1.89543 15 3C15 4.10457 14.1046 5 13 5C11.8954 5 11 4.10457 11 3Z" stroke="#10D749" stroke-width="1.5" stroke-linecap="round" stroke-linejoin="round"/>
<path fill-rule="evenodd" clip-rule="evenodd" d="M6 17C6 15.8954 6.89543 15 8 15C9.10457 15 10 15.8954 10 17C10 18.1046 9.10457 19 8 19C7.46957 19 6.96086 18.7893 6.58579 18.4142C6.21071 18.0391 6 17.5304 6 17Z" stroke="#10D749" stroke-width="1.5" stroke-linecap="round" stroke-linejoin="round"/>
<path d="M3.75002 5C3.75002 4.58579 3.41423 4.25 3.00002 4.25C2.58581 4.25 2.25002 4.58579 2.25002 5H3.75002ZM3.00002 8.03L3.75002 8.03308V8.03H3.00002ZM3.45302 9.479L4.07182 9.05516L4.06771 9.04928L3.45302 9.479ZM5.28602 10.454L5.28043 11.204H5.28602V10.454ZM10.714 10.454V11.204C10.7216 11.204 10.7291 11.2039 10.7366 11.2037L10.714 10.454ZM13 8.03H12.25C12.25 8.03711 12.2501 8.04422 12.2503 8.05133L13 8.03ZM13.75 5C13.75 4.58579 13.4142 4.25 13 4.25C12.5858 4.25 12.25 4.58579 12.25 5H13.75ZM7.25002 15C7.25002 15.4142 7.58581 15.75 8.00002 15.75C8.41423 15.75 8.75002 15.4142 8.75002 15H7.25002ZM8.75002 10.455C8.75002 10.0408 8.41423 9.705 8.00002 9.705C7.58581 9.705 7.25002 10.0408 7.25002 10.455H8.75002ZM2.25002 5V8.03H3.75002V5H2.25002ZM2.25003 8.02692C2.24727 8.69986 2.45276 9.35718 2.83833 9.90872L4.06771 9.04928C3.8595 8.75144 3.74852 8.39648 3.75001 8.03308L2.25003 8.02692ZM2.83425 9.90282C3.3876 10.7107 4.30124 11.1967 5.28043 11.204L5.29161 9.70402C4.80333 9.70038 4.34773 9.45804 4.07179 9.05518L2.83425 9.90282ZM5.28602 11.204H10.714V9.704H5.28602V11.204ZM10.7366 11.2037C12.4503 11.152 13.7985 9.72243 13.7497 8.00867L12.2503 8.05133C12.2756 8.93799 11.578 9.67762 10.6914 9.70434L10.7366 11.2037ZM13.75 8.03V5H12.25V8.03H13.75ZM8.75002 15V10.455H7.25002V15H8.75002Z" fill="#10D749"/>
</svg>
