<svg width="22" height="16" viewBox="0 0 22 16" fill="none" xmlns="http://www.w3.org/2000/svg">
<path fill-rule="evenodd" clip-rule="evenodd" d="M13.375 3.375C13.375 4.68668 12.3117 5.75 11 5.75C9.68832 5.75 8.625 4.68668 8.625 3.375C8.625 2.06332 9.68832 1 11 1C12.3117 1 13.375 2.06332 13.375 3.375Z" stroke="black" stroke-width="1.5" stroke-linecap="round" stroke-linejoin="round"/>
<path fill-rule="evenodd" clip-rule="evenodd" d="M15.75 11.775C15.75 13.575 13.623 15.042 11 15.042C8.377 15.042 6.25 13.579 6.25 11.775C6.25 9.97097 8.377 8.50897 11 8.50897C13.623 8.50897 15.75 9.97097 15.75 11.775Z" stroke="black" stroke-width="1.5" stroke-linecap="round" stroke-linejoin="round"/>
<path fill-rule="evenodd" clip-rule="evenodd" d="M18.4 5.55301C18.4101 6.13153 18.0695 6.65876 17.5379 6.88722C17.0063 7.11569 16.3893 7.00002 15.9765 6.59451C15.5638 6.18901 15.4372 5.57418 15.6562 5.03861C15.8753 4.50305 16.3964 4.1531 16.975 4.15301C17.755 4.14635 18.3928 4.77301 18.4 5.55301V5.55301Z" stroke="black" stroke-width="1.5" stroke-linecap="round" stroke-linejoin="round"/>
<path fill-rule="evenodd" clip-rule="evenodd" d="M3.60007 5.55301C3.58992 6.13153 3.9306 6.65876 4.4622 6.88722C4.99381 7.11569 5.61078 7.00002 6.02353 6.59451C6.43627 6.18901 6.56284 5.57418 6.34382 5.03861C6.12481 4.50305 5.60369 4.1531 5.02507 4.15301C4.24507 4.14635 3.60722 4.77301 3.60007 5.55301Z" stroke="black" stroke-width="1.5" stroke-linecap="round" stroke-linejoin="round"/>
<path d="M17.7169 13.362C17.3043 13.325 16.9399 13.6295 16.903 14.0421C16.866 14.4547 17.1705 14.8191 17.5831 14.856L17.7169 13.362ZM20.5 11.775L21.2455 11.8567C21.2515 11.8023 21.2515 11.7474 21.2455 11.693L20.5 11.775ZM17.5831 8.69498C17.1705 8.73194 16.866 9.09634 16.903 9.50891C16.9399 9.92147 17.3044 10.226 17.7169 10.189L17.5831 8.69498ZM4.41689 14.856C4.82945 14.8191 5.13395 14.4547 5.09701 14.0421C5.06007 13.6295 4.69567 13.325 4.28311 13.362L4.41689 14.856ZM1.5 11.775L0.754491 11.693C0.748513 11.7474 0.748503 11.8023 0.75446 11.8567L1.5 11.775ZM4.28308 10.189C4.69564 10.226 5.06005 9.92147 5.09701 9.50891C5.13397 9.09634 4.82948 8.73194 4.41692 8.69498L4.28308 10.189ZM17.5831 14.856C19.4169 15.0202 21.045 13.6869 21.2455 11.8567L19.7545 11.6933C19.6429 12.7115 18.7371 13.4533 17.7169 13.362L17.5831 14.856ZM21.2455 11.693C21.0444 9.86333 19.4165 8.53073 17.5831 8.69498L17.7169 10.189C18.7369 10.0976 19.6426 10.839 19.7545 11.8569L21.2455 11.693ZM4.28311 13.362C3.26287 13.4533 2.35709 12.7115 2.24554 11.6933L0.75446 11.8567C0.954964 13.6869 2.58306 15.0202 4.41689 14.856L4.28311 13.362ZM2.24551 11.8569C2.35742 10.839 3.26309 10.0976 4.28308 10.189L4.41692 8.69498C2.58354 8.53073 0.955639 9.86333 0.754491 11.693L2.24551 11.8569Z" fill="black"/>
</svg>
