<svg width="16" height="16" viewBox="0 0 16 16" fill="none" xmlns="http://www.w3.org/2000/svg">
<path d="M2.37217 10.4714C2.48453 10.0727 2.25241 9.65844 1.85373 9.54609C1.45504 9.43373 1.04076 9.66585 0.928408 10.0645L2.37217 10.4714ZM1.04129 12.429L0.319408 12.2255C0.31158 12.2533 0.305361 12.2815 0.300784 12.31L1.04129 12.429ZM2.04129 14.257L1.92506 14.9979C1.9621 15.0037 1.99953 15.0067 2.03702 15.007L2.04129 14.257ZM5.52429 13.151L5.13258 12.5114C5.11741 12.5207 5.10259 12.5305 5.08812 12.5408L5.52429 13.151ZM9.94629 9.59997L9.41697 9.06864C9.4134 9.07219 9.40987 9.07578 9.40637 9.07941L9.94629 9.59997ZM13.3463 5.18097L12.7314 4.7516C12.7192 4.76907 12.7077 4.78706 12.697 4.80551L13.3463 5.18097ZM14.2163 1.85197L14.9627 1.77837C14.9581 1.73231 14.9493 1.68678 14.9364 1.64234L14.2163 1.85197ZM12.1703 1.09097L12.0054 0.359331C11.9778 0.365554 11.9505 0.373335 11.9238 0.382637L12.1703 1.09097ZM10.1738 0.991637C9.78259 1.12777 9.57582 1.55527 9.71196 1.94647C9.84809 2.33767 10.2756 2.54444 10.6668 2.40831L10.1738 0.991637ZM10.4203 1.69997L10.1723 2.4078L10.1732 2.40811L10.4203 1.69997ZM2.69279 4.04127L3.2919 4.49245L2.69279 4.04127ZM2.57704 12.1148L3.18884 11.681L2.57704 12.1148ZM10.2342 14.6767L10.0067 13.9621L10.2342 14.6767ZM15.0003 8.15897L14.2503 8.15785V8.15878L15.0003 8.15897ZM0.928408 10.0645L0.319408 12.2255L1.76317 12.6324L2.37217 10.4714L0.928408 10.0645ZM0.300784 12.31C0.202021 12.9248 0.234668 13.5384 0.513767 14.0491C0.811531 14.594 1.32443 14.9037 1.92506 14.9979L2.15752 13.516C1.94215 13.4822 1.87055 13.4039 1.83006 13.3298C1.77091 13.2216 1.71156 12.9851 1.7818 12.5479L0.300784 12.31ZM2.03702 15.007C3.44336 15.015 4.81637 14.579 5.96046 13.7611L5.08812 12.5408C4.2009 13.1751 3.13616 13.5132 2.04556 13.507L2.03702 15.007ZM5.916 13.7905C7.58888 12.766 9.12461 11.5327 10.4862 10.1205L9.40637 9.07941C8.13309 10.4 6.69696 11.5533 5.13258 12.5114L5.916 13.7905ZM10.4756 10.1313C11.8446 8.76746 13.0281 7.22928 13.9955 5.55644L12.697 4.80551C11.7955 6.36436 10.6927 7.79773 9.41697 9.06864L10.4756 10.1313ZM13.9612 5.61034C14.7412 4.49326 15.0964 3.13424 14.9627 1.77837L13.4699 1.92557C13.5685 2.92551 13.3066 3.92777 12.7314 4.7516L13.9612 5.61034ZM14.9364 1.64234C14.7642 1.05066 14.3646 0.610544 13.7898 0.39659C13.2548 0.197442 12.6346 0.217477 12.0054 0.359331L12.3352 1.82261C12.815 1.71447 13.1098 1.744 13.2665 1.80235C13.3835 1.8459 13.4524 1.91129 13.4962 2.0616L14.9364 1.64234ZM11.9238 0.382637L10.1738 0.991637L10.6668 2.40831L12.4168 1.79931L11.9238 0.382637ZM10.6682 0.992144C7.54926 -0.100446 4.08177 0.950139 2.09367 3.59009L3.2919 4.49245C4.88719 2.37409 7.66959 1.53108 10.1723 2.4078L10.6682 0.992144ZM2.09367 3.59009C0.105577 6.23003 0.0536387 9.85281 1.96524 12.5487L3.18884 11.681C1.65493 9.5178 1.6966 6.6108 3.2919 4.49245L2.09367 3.59009ZM1.96524 12.5487C3.87684 15.2445 7.31278 16.3941 10.4618 15.3913L10.0067 13.9621C7.47983 14.7667 4.72275 13.8442 3.18884 11.681L1.96524 12.5487ZM10.4618 15.3913C13.6108 14.3886 15.7495 11.464 15.7503 8.15916L14.2503 8.15878C14.2496 10.8106 12.5335 13.1574 10.0067 13.9621L10.4618 15.3913ZM15.7503 8.1601C15.7551 4.93213 13.7151 2.05522 10.6674 0.991836L10.1732 2.40811C12.6179 3.26106 14.2542 5.56866 14.2503 8.15785L15.7503 8.1601Z" fill="black"/>
</svg>
